# MagicaVoxel @ Ephtracy

# group
o 

# material
mtllib Player-Gun-Walk-2.mtl
usemtl palette

# normals
vn -1 0 0
vn 1 0 0
vn 0 0 1
vn 0 0 -1
vn 0 -1 0
vn 0 1 0

# texcoords
vt 0.794922 0.5
vt 0.826172 0.5
vt 0.958984 0.5
vt 0.982422 0.5
vt 0.986328 0.5

# verts
v -0.3 1.2 7.45058e-009
v -0.3 1.2 -0.3
v -0.3 1.3 7.45058e-009
v -0.3 1.3 -0.3
v -0.2 0.3 -0.3
v -0.2 0.3 -0.5
v -0.2 0.4 -0.3
v -0.2 0.4 -0.4
v -0.2 0.4 -0.5
v -0.2 0.7 7.45058e-009
v -0.2 0.7 -0.3
v -0.2 0.8 7.45058e-009
v -0.2 0.8 -0.1
v -0.2 0.8 -0.4
v -0.2 1.2 7.45058e-009
v -0.2 1.2 -0.1
v -0.2 1.2 -0.3
v -0.2 1.2 -0.4
v -0.2 1.3 -0.3
v -0.2 1.3 -0.4
v -0.1 1.2 -0.4
v -0.1 1.2 -0.5
v -0.1 1.3 7.45058e-009
v -0.1 1.3 -0.1
v -0.1 1.3 -0.4
v -0.1 1.3 -0.5
v -0.1 1.4 -0.1
v -0.1 1.4 -0.2
v -0.1 1.5 7.45058e-009
v -0.1 1.5 -0.1
v -0.1 1.6 7.45058e-009
v -0.1 1.6 -0.1
v -0.1 1.6 -0.2
v -0.1 1.7 -0.1
v -0.1 1.7 -0.2
v 0 1.1 -0.2
v 0 1.1 -0.3
v 0 1.1 -0.4
v 0 1.1 -0.5
v 0 1.2 -0.2
v 0 1.2 -0.3
v 0 1.2 -0.4
v 0 1.2 -0.5
v 0 1.2 -0.8
v 0 1.2 -0.9
v 0 1.3 -0.3
v 0 1.3 -0.4
v 0 1.3 -0.5
v 0 1.3 -0.6
v 0 1.3 -0.8
v 0 1.3 -0.9
v 0 1.4 -0.4
v 0 1.4 -0.6
v 0.1 0 0.2
v 0.1 0 0.1
v 0.1 0.2 0.2
v 0.1 0.2 0.1
v 0.1 0.3 0.2
v 0.1 0.3 0.1
v 0.1 0.3 7.45058e-009
v 0.1 0.5 7.45058e-009
v 0.1 0.5 -0.1
v 0.1 0.6 0.1
v 0.1 0.6 7.45058e-009
v 0.1 0.7 7.45058e-009
v 0.1 0.7 -0.1
v 0.1 1.1 -0.3
v 0.1 1.1 -0.4
v 0.1 1.2 -0.3
v 0.1 1.2 -0.4
v 0.2 1.1 -0.1
v 0.2 1.1 -0.3
v 0.2 1.2 -0.1
v 0.2 1.2 -0.3
v -0.2 1.2 -0.1
v -0.2 1.2 -0.3
v -0.2 1.3 -0.1
v -0.2 1.3 -0.3
v -0.1 0.3 -0.3
v -0.1 0.3 -0.5
v -0.1 0.4 -0.3
v -0.1 0.4 -0.4
v -0.1 0.4 -0.5
v -0.1 0.7 -0.1
v -0.1 0.7 -0.3
v -0.1 0.8 -0.1
v -0.1 0.8 -0.4
v -0.1 1.2 -0.3
v -0.1 1.2 -0.4
v -0.1 1.3 -0.3
v -0.1 1.3 -0.4
v 0.1 1.1 -0.2
v 0.1 1.1 -0.3
v 0.1 1.1 -0.4
v 0.1 1.1 -0.5
v 0.1 1.2 -0.2
v 0.1 1.2 -0.3
v 0.1 1.2 -0.4
v 0.1 1.2 -0.5
v 0.1 1.2 -0.8
v 0.1 1.2 -0.9
v 0.1 1.3 7.45058e-009
v 0.1 1.3 -0.1
v 0.1 1.3 -0.3
v 0.1 1.3 -0.4
v 0.1 1.3 -0.6
v 0.1 1.3 -0.8
v 0.1 1.3 -0.9
v 0.1 1.4 -0.1
v 0.1 1.4 -0.2
v 0.1 1.4 -0.4
v 0.1 1.4 -0.6
v 0.1 1.5 7.45058e-009
v 0.1 1.5 -0.1
v 0.1 1.6 7.45058e-009
v 0.1 1.6 -0.1
v 0.1 1.6 -0.2
v 0.1 1.7 -0.1
v 0.1 1.7 -0.2
v 0.2 0 0.2
v 0.2 0 0.1
v 0.2 0.2 0.2
v 0.2 0.2 0.1
v 0.2 0.3 0.2
v 0.2 0.3 0.1
v 0.2 0.3 7.45058e-009
v 0.2 0.5 7.45058e-009
v 0.2 0.5 -0.1
v 0.2 0.6 0.1
v 0.2 0.6 7.45058e-009
v 0.2 0.8 7.45058e-009
v 0.2 0.8 -0.1
v 0.2 1.1 -0.1
v 0.2 1.1 -0.3
v 0.2 1.1 -0.4
v 0.2 1.2 7.45058e-009
v 0.2 1.2 -0.1
v 0.2 1.2 -0.3
v 0.2 1.2 -0.4
v 0.3 1.1 -0.1
v 0.3 1.1 -0.3
v 0.3 1.2 7.45058e-009
v 0.3 1.2 -0.1
v 0.3 1.2 -0.3
v 0.3 1.3 7.45058e-009
v 0.3 1.3 -0.1
v 0.1 0 0.2
v 0.1 0.2 0.2
v 0.1 0.3 0.2
v 0.2 0 0.2
v 0.2 0.2 0.2
v 0.2 0.3 0.2
v 0.1 0.3 0.1
v 0.1 0.6 0.1
v 0.2 0.3 0.1
v 0.2 0.6 0.1
v -0.3 1.2 7.45058e-009
v -0.3 1.3 7.45058e-009
v -0.2 0.7 7.45058e-009
v -0.2 0.8 7.45058e-009
v -0.2 1.2 7.45058e-009
v -0.2 1.3 7.45058e-009
v -0.1 1.3 7.45058e-009
v -0.1 1.5 7.45058e-009
v -0.1 1.6 7.45058e-009
v 0.1 0.6 7.45058e-009
v 0.1 0.7 7.45058e-009
v 0.1 1.3 7.45058e-009
v 0.1 1.5 7.45058e-009
v 0.1 1.6 7.45058e-009
v 0.2 0.6 7.45058e-009
v 0.2 0.8 7.45058e-009
v 0.2 1.2 7.45058e-009
v 0.2 1.3 7.45058e-009
v 0.3 1.2 7.45058e-009
v 0.3 1.3 7.45058e-009
v -0.1 1.6 -0.1
v -0.1 1.7 -0.1
v 0.1 1.6 -0.1
v 0.1 1.7 -0.1
v 0.2 1.1 -0.1
v 0.2 1.2 -0.1
v 0.3 1.1 -0.1
v 0.3 1.2 -0.1
v 0 1.1 -0.2
v 0 1.2 -0.2
v 0.1 1.1 -0.2
v 0.1 1.2 -0.2
v -0.2 0.3 -0.3
v -0.2 0.4 -0.3
v -0.2 0.7 -0.3
v -0.2 1.2 -0.3
v -0.2 1.3 -0.3
v -0.1 0.3 -0.3
v -0.1 0.4 -0.3
v -0.1 0.7 -0.3
v -0.1 1.2 -0.3
v -0.1 1.3 -0.3
v 0 1.2 -0.3
v 0 1.3 -0.3
v 0.1 1.1 -0.3
v 0.1 1.2 -0.3
v 0.1 1.3 -0.3
v 0.2 1.1 -0.3
v 0.2 1.2 -0.3
v -0.1 1.2 -0.4
v -0.1 1.3 -0.4
v 0 1.1 -0.4
v 0 1.2 -0.4
v 0 1.3 -0.4
v 0 1.4 -0.4
v 0.1 1.1 -0.4
v 0.1 1.2 -0.4
v 0.1 1.3 -0.4
v 0.1 1.4 -0.4
v 0.1 0 0.1
v 0.1 0.2 0.1
v 0.1 0.3 0.1
v 0.2 0 0.1
v 0.2 0.2 0.1
v 0.2 0.3 0.1
v 0.1 0.3 7.45058e-009
v 0.1 0.5 7.45058e-009
v 0.2 0.3 7.45058e-009
v 0.2 0.5 7.45058e-009
v -0.2 0.8 -0.1
v -0.2 1.2 -0.1
v -0.2 1.3 -0.1
v -0.1 0.7 -0.1
v -0.1 0.8 -0.1
v -0.1 1.3 -0.1
v -0.1 1.4 -0.1
v 0.1 0.5 -0.1
v 0.1 0.7 -0.1
v 0.1 1.3 -0.1
v 0.1 1.4 -0.1
v 0.2 0.5 -0.1
v 0.2 0.8 -0.1
v 0.2 1.1 -0.1
v 0.2 1.2 -0.1
v 0.2 1.3 -0.1
v 0.3 1.2 -0.1
v 0.3 1.3 -0.1
v -0.1 1.4 -0.2
v -0.1 1.6 -0.2
v -0.1 1.7 -0.2
v 0.1 1.4 -0.2
v 0.1 1.6 -0.2
v 0.1 1.7 -0.2
v -0.3 1.2 -0.3
v -0.3 1.3 -0.3
v -0.2 1.2 -0.3
v -0.2 1.3 -0.3
v 0 1.1 -0.3
v 0 1.2 -0.3
v 0.1 1.1 -0.3
v 0.1 1.2 -0.3
v 0.2 1.1 -0.3
v 0.2 1.2 -0.3
v 0.3 1.1 -0.3
v 0.3 1.2 -0.3
v -0.2 0.4 -0.4
v -0.2 0.8 -0.4
v -0.2 1.2 -0.4
v -0.2 1.3 -0.4
v -0.1 0.4 -0.4
v -0.1 0.8 -0.4
v -0.1 1.2 -0.4
v -0.1 1.3 -0.4
v 0.1 1.1 -0.4
v 0.1 1.2 -0.4
v 0.2 1.1 -0.4
v 0.2 1.2 -0.4
v -0.2 0.3 -0.5
v -0.2 0.4 -0.5
v -0.1 0.3 -0.5
v -0.1 0.4 -0.5
v -0.1 1.2 -0.5
v -0.1 1.3 -0.5
v 0 1.1 -0.5
v 0 1.2 -0.5
v 0 1.3 -0.5
v 0.1 1.1 -0.5
v 0.1 1.2 -0.5
v 0 1.3 -0.6
v 0 1.4 -0.6
v 0.1 1.3 -0.6
v 0.1 1.4 -0.6
v 0 1.2 -0.9
v 0 1.3 -0.9
v 0.1 1.2 -0.9
v 0.1 1.3 -0.9
v 0.1 0 0.2
v 0.2 0 0.2
v 0.1 0 0.1
v 0.2 0 0.1
v 0.1 0.3 0.1
v 0.2 0.3 0.1
v 0.1 0.3 7.45058e-009
v 0.2 0.3 7.45058e-009
v -0.2 0.3 -0.3
v -0.1 0.3 -0.3
v -0.2 0.3 -0.5
v -0.1 0.3 -0.5
v 0.1 0.5 7.45058e-009
v 0.2 0.5 7.45058e-009
v 0.1 0.5 -0.1
v 0.2 0.5 -0.1
v -0.2 0.7 7.45058e-009
v 0.1 0.7 7.45058e-009
v -0.1 0.7 -0.1
v 0.1 0.7 -0.1
v -0.2 0.7 -0.3
v -0.1 0.7 -0.3
v 0.2 1.1 -0.1
v 0.3 1.1 -0.1
v 0 1.1 -0.2
v 0.1 1.1 -0.2
v 0 1.1 -0.3
v 0.1 1.1 -0.3
v 0.2 1.1 -0.3
v 0.3 1.1 -0.3
v 0 1.1 -0.4
v 0.1 1.1 -0.4
v 0.2 1.1 -0.4
v 0 1.1 -0.5
v 0.1 1.1 -0.5
v -0.3 1.2 7.45058e-009
v -0.2 1.2 7.45058e-009
v 0.2 1.2 7.45058e-009
v 0.3 1.2 7.45058e-009
v -0.2 1.2 -0.1
v 0.2 1.2 -0.1
v 0.3 1.2 -0.1
v -0.3 1.2 -0.3
v -0.2 1.2 -0.3
v -0.1 1.2 -0.3
v 0 1.2 -0.3
v 0.1 1.2 -0.3
v -0.2 1.2 -0.4
v -0.1 1.2 -0.4
v 0 1.2 -0.4
v 0.1 1.2 -0.4
v -0.1 1.2 -0.5
v 0 1.2 -0.5
v 0.1 1.2 -0.5
v 0 1.2 -0.8
v 0.1 1.2 -0.8
v 0 1.2 -0.9
v 0.1 1.2 -0.9
v -0.1 1.4 -0.1
v 0.1 1.4 -0.1
v -0.1 1.4 -0.2
v 0.1 1.4 -0.2
v 0.1 0.3 0.2
v 0.2 0.3 0.2
v 0.1 0.3 0.1
v 0.2 0.3 0.1
v -0.2 0.4 -0.4
v -0.1 0.4 -0.4
v -0.2 0.4 -0.5
v -0.1 0.4 -0.5
v 0.1 0.6 0.1
v 0.2 0.6 0.1
v 0.1 0.6 7.45058e-009
v 0.2 0.6 7.45058e-009
v -0.2 0.8 -0.1
v -0.1 0.8 -0.1
v -0.2 0.8 -0.4
v -0.1 0.8 -0.4
v 0.2 1.2 -0.1
v 0.3 1.2 -0.1
v 0 1.2 -0.2
v 0.1 1.2 -0.2
v 0 1.2 -0.3
v 0.1 1.2 -0.3
v 0.2 1.2 -0.3
v 0.3 1.2 -0.3
v 0.1 1.2 -0.4
v 0.2 1.2 -0.4
v -0.3 1.3 7.45058e-009
v -0.2 1.3 7.45058e-009
v -0.1 1.3 7.45058e-009
v 0.1 1.3 7.45058e-009
v 0.2 1.3 7.45058e-009
v 0.3 1.3 7.45058e-009
v -0.2 1.3 -0.1
v -0.1 1.3 -0.1
v 0.1 1.3 -0.1
v 0.2 1.3 -0.1
v 0.3 1.3 -0.1
v -0.3 1.3 -0.3
v -0.2 1.3 -0.3
v -0.1 1.3 -0.3
v 0 1.3 -0.3
v 0.1 1.3 -0.3
v -0.2 1.3 -0.4
v -0.1 1.3 -0.4
v 0 1.3 -0.4
v 0.1 1.3 -0.4
v -0.1 1.3 -0.5
v 0 1.3 -0.5
v 0 1.3 -0.6
v 0.1 1.3 -0.6
v 0 1.3 -0.8
v 0.1 1.3 -0.8
v 0 1.3 -0.9
v 0.1 1.3 -0.9
v 0 1.4 -0.4
v 0.1 1.4 -0.4
v 0 1.4 -0.6
v 0.1 1.4 -0.6
v -0.1 1.6 7.45058e-009
v 0.1 1.6 7.45058e-009
v -0.1 1.6 -0.1
v 0.1 1.6 -0.1
v -0.1 1.7 -0.1
v 0.1 1.7 -0.1
v -0.1 1.7 -0.2
v 0.1 1.7 -0.2

# faces
f 3/3/1 2/3/1 1/3/1
f 4/3/1 2/3/1 3/3/1
f 7/3/1 6/3/1 5/3/1
f 8/3/1 6/3/1 7/3/1
f 9/3/1 6/3/1 8/3/1
f 11/2/1 8/2/1 7/2/1
f 12/2/1 11/2/1 10/2/1
f 13/2/1 11/2/1 12/2/1
f 14/2/1 8/2/1 11/2/1
f 14/2/1 11/2/1 13/2/1
f 15/1/1 13/1/1 12/1/1
f 16/1/1 13/1/1 15/1/1
f 19/3/1 18/3/1 17/3/1
f 20/3/1 18/3/1 19/3/1
f 25/3/1 22/3/1 21/3/1
f 26/3/1 22/3/1 25/3/1
f 27/3/1 24/3/1 23/3/1
f 29/3/1 27/3/1 23/3/1
f 29/3/1 28/3/1 27/3/1
f 30/3/1 28/3/1 29/3/1
f 31/4/1 30/4/1 29/4/1
f 32/3/1 28/3/1 30/3/1
f 32/4/1 30/4/1 31/4/1
f 33/3/1 28/3/1 32/3/1
f 34/4/1 33/4/1 32/4/1
f 35/4/1 33/4/1 34/4/1
f 40/5/1 37/5/1 36/5/1
f 41/5/1 37/5/1 40/5/1
f 42/4/1 39/4/1 38/4/1
f 43/4/1 39/4/1 42/4/1
f 46/5/1 42/5/1 41/5/1
f 47/5/1 42/5/1 46/5/1
f 48/4/1 44/4/1 43/4/1
f 49/4/1 44/4/1 48/4/1
f 50/5/1 45/5/1 44/5/1
f 50/4/1 44/4/1 49/4/1
f 51/5/1 45/5/1 50/5/1
f 52/5/1 49/5/1 48/5/1
f 52/5/1 48/5/1 47/5/1
f 53/5/1 49/5/1 52/5/1
f 56/3/1 55/3/1 54/3/1
f 57/3/1 55/3/1 56/3/1
f 58/2/1 57/2/1 56/2/1
f 59/2/1 57/2/1 58/2/1
f 61/2/1 60/2/1 59/2/1
f 63/2/1 61/2/1 59/2/1
f 63/2/1 62/2/1 61/2/1
f 64/2/1 62/2/1 63/2/1
f 65/2/1 62/2/1 64/2/1
f 66/2/1 62/2/1 65/2/1
f 69/3/1 68/3/1 67/3/1
f 70/3/1 68/3/1 69/3/1
f 73/3/1 72/3/1 71/3/1
f 74/3/1 72/3/1 73/3/1
f 75/3/2 76/3/2 77/3/2
f 77/3/2 76/3/2 78/3/2
f 79/3/2 80/3/2 81/3/2
f 81/3/2 80/3/2 82/3/2
f 82/3/2 80/3/2 83/3/2
f 81/2/2 82/2/2 85/2/2
f 84/2/2 85/2/2 86/2/2
f 85/2/2 82/2/2 87/2/2
f 86/2/2 85/2/2 87/2/2
f 88/3/2 89/3/2 90/3/2
f 90/3/2 89/3/2 91/3/2
f 92/5/2 93/5/2 96/5/2
f 96/5/2 93/5/2 97/5/2
f 94/4/2 95/4/2 98/4/2
f 98/4/2 95/4/2 99/4/2
f 97/5/2 98/5/2 104/5/2
f 98/4/2 99/4/2 105/4/2
f 104/5/2 98/5/2 105/5/2
f 99/4/2 100/4/2 105/4/2
f 105/4/2 100/4/2 106/4/2
f 100/5/2 101/5/2 107/5/2
f 106/4/2 100/4/2 107/4/2
f 107/5/2 101/5/2 108/5/2
f 102/3/2 103/3/2 109/3/2
f 105/5/2 106/5/2 111/5/2
f 111/5/2 106/5/2 112/5/2
f 109/3/2 110/3/2 113/3/2
f 102/3/2 109/3/2 113/3/2
f 113/3/2 110/3/2 114/3/2
f 113/4/2 114/4/2 115/4/2
f 114/3/2 110/3/2 116/3/2
f 115/4/2 114/4/2 116/4/2
f 116/3/2 110/3/2 117/3/2
f 116/4/2 117/4/2 118/4/2
f 118/4/2 117/4/2 119/4/2
f 120/3/2 121/3/2 122/3/2
f 122/3/2 121/3/2 123/3/2
f 122/2/2 123/2/2 124/2/2
f 124/2/2 123/2/2 125/2/2
f 125/2/2 126/2/2 127/2/2
f 125/2/2 127/2/2 129/2/2
f 127/2/2 128/2/2 129/2/2
f 129/2/2 128/2/2 130/2/2
f 130/2/2 128/2/2 131/2/2
f 131/2/2 128/2/2 132/2/2
f 131/1/2 132/1/2 133/1/2
f 131/1/2 133/1/2 136/1/2
f 136/1/2 133/1/2 137/1/2
f 134/3/2 135/3/2 138/3/2
f 138/3/2 135/3/2 139/3/2
f 140/3/2 141/3/2 143/3/2
f 143/3/2 141/3/2 144/3/2
f 142/3/2 143/3/2 145/3/2
f 145/3/2 143/3/2 146/3/2
f 150/3/3 148/3/3 147/3/3
f 151/2/3 149/2/3 148/2/3
f 151/3/3 148/3/3 150/3/3
f 152/2/3 149/2/3 151/2/3
f 155/2/3 154/2/3 153/2/3
f 156/2/3 154/2/3 155/2/3
f 161/3/3 158/3/3 157/3/3
f 162/3/3 158/3/3 161/3/3
f 163/1/3 161/1/3 160/1/3
f 163/1/3 162/1/3 161/1/3
f 167/2/3 160/2/3 159/2/3
f 168/1/3 163/1/3 160/1/3
f 168/3/3 164/3/3 163/3/3
f 169/4/3 165/4/3 164/4/3
f 169/3/3 164/3/3 168/3/3
f 170/4/3 165/4/3 169/4/3
f 171/2/3 167/2/3 166/2/3
f 172/1/3 168/1/3 160/1/3
f 172/2/3 167/2/3 171/2/3
f 172/2/3 160/2/3 167/2/3
f 173/1/3 168/1/3 172/1/3
f 174/1/3 168/1/3 173/1/3
f 175/3/3 174/3/3 173/3/3
f 176/3/3 174/3/3 175/3/3
f 179/4/3 178/4/3 177/4/3
f 180/4/3 178/4/3 179/4/3
f 183/3/3 182/3/3 181/3/3
f 184/3/3 182/3/3 183/3/3
f 187/5/3 186/5/3 185/5/3
f 188/5/3 186/5/3 187/5/3
f 194/3/3 190/3/3 189/3/3
f 195/2/3 191/2/3 190/2/3
f 195/3/3 190/3/3 194/3/3
f 196/2/3 191/2/3 195/2/3
f 197/3/3 193/3/3 192/3/3
f 198/3/3 193/3/3 197/3/3
f 202/5/3 200/5/3 199/5/3
f 203/5/3 200/5/3 202/5/3
f 204/3/3 202/3/3 201/3/3
f 205/3/3 202/3/3 204/3/3
f 209/3/3 207/3/3 206/3/3
f 210/3/3 207/3/3 209/3/3
f 212/4/3 209/4/3 208/4/3
f 213/4/3 209/4/3 212/4/3
f 214/5/3 211/5/3 210/5/3
f 215/5/3 211/5/3 214/5/3
f 216/3/4 217/3/4 219/3/4
f 217/2/4 218/2/4 220/2/4
f 219/3/4 217/3/4 220/3/4
f 220/2/4 218/2/4 221/2/4
f 222/2/4 223/2/4 224/2/4
f 224/2/4 223/2/4 225/2/4
f 226/1/4 227/1/4 230/1/4
f 227/1/4 228/1/4 230/1/4
f 230/1/4 228/1/4 231/1/4
f 229/2/4 230/2/4 234/2/4
f 231/3/4 232/3/4 235/3/4
f 230/1/4 231/1/4 235/1/4
f 235/3/4 232/3/4 236/3/4
f 233/2/4 234/2/4 237/2/4
f 234/2/4 230/2/4 238/2/4
f 237/2/4 234/2/4 238/2/4
f 230/1/4 235/1/4 238/1/4
f 238/1/4 235/1/4 239/1/4
f 239/1/4 235/1/4 240/1/4
f 240/1/4 235/1/4 241/1/4
f 240/3/4 241/3/4 242/3/4
f 242/3/4 241/3/4 243/3/4
f 244/3/4 245/3/4 247/3/4
f 245/4/4 246/4/4 248/4/4
f 247/3/4 245/3/4 248/3/4
f 248/4/4 246/4/4 249/4/4
f 250/3/4 251/3/4 252/3/4
f 252/3/4 251/3/4 253/3/4
f 254/5/4 255/5/4 256/5/4
f 256/5/4 255/5/4 257/5/4
f 258/3/4 259/3/4 260/3/4
f 260/3/4 259/3/4 261/3/4
f 262/2/4 263/2/4 266/2/4
f 266/2/4 263/2/4 267/2/4
f 264/3/4 265/3/4 268/3/4
f 268/3/4 265/3/4 269/3/4
f 270/3/4 271/3/4 272/3/4
f 272/3/4 271/3/4 273/3/4
f 274/3/4 275/3/4 276/3/4
f 276/3/4 275/3/4 277/3/4
f 278/3/4 279/3/4 281/3/4
f 281/3/4 279/3/4 282/3/4
f 280/4/4 281/4/4 283/4/4
f 283/4/4 281/4/4 284/4/4
f 285/5/4 286/5/4 287/5/4
f 287/5/4 286/5/4 288/5/4
f 289/5/4 290/5/4 291/5/4
f 291/5/4 290/5/4 292/5/4
f 295/3/5 294/3/5 293/3/5
f 296/3/5 294/3/5 295/3/5
f 299/2/5 298/2/5 297/2/5
f 300/2/5 298/2/5 299/2/5
f 303/3/5 302/3/5 301/3/5
f 304/3/5 302/3/5 303/3/5
f 307/2/5 306/2/5 305/2/5
f 308/2/5 306/2/5 307/2/5
f 311/2/5 310/2/5 309/2/5
f 312/2/5 310/2/5 311/2/5
f 313/2/5 311/2/5 309/2/5
f 314/2/5 311/2/5 313/2/5
f 319/5/5 318/5/5 317/5/5
f 320/5/5 318/5/5 319/5/5
f 321/3/5 316/3/5 315/3/5
f 322/3/5 316/3/5 321/3/5
f 324/3/5 321/3/5 320/3/5
f 325/3/5 321/3/5 324/3/5
f 326/4/5 324/4/5 323/4/5
f 327/4/5 324/4/5 326/4/5
f 332/3/5 329/3/5 328/3/5
f 333/3/5 331/3/5 330/3/5
f 334/3/5 331/3/5 333/3/5
f 335/3/5 332/3/5 328/3/5
f 336/3/5 332/3/5 335/3/5
f 340/3/5 337/3/5 336/3/5
f 341/3/5 337/3/5 340/3/5
f 342/5/5 339/5/5 338/5/5
f 343/5/5 339/5/5 342/5/5
f 344/3/5 342/3/5 341/3/5
f 345/3/5 342/3/5 344/3/5
f 347/4/5 346/4/5 345/4/5
f 348/4/5 346/4/5 347/4/5
f 349/5/5 348/5/5 347/5/5
f 350/5/5 348/5/5 349/5/5
f 353/3/5 352/3/5 351/3/5
f 354/3/5 352/3/5 353/3/5
f 355/2/6 356/2/6 357/2/6
f 357/2/6 356/2/6 358/2/6
f 359/3/6 360/3/6 361/3/6
f 361/3/6 360/3/6 362/3/6
f 363/2/6 364/2/6 365/2/6
f 365/2/6 364/2/6 366/2/6
f 367/2/6 368/2/6 369/2/6
f 369/2/6 368/2/6 370/2/6
f 373/5/6 374/5/6 375/5/6
f 375/5/6 374/5/6 376/5/6
f 371/3/6 372/3/6 377/3/6
f 377/3/6 372/3/6 378/3/6
f 376/3/6 377/3/6 379/3/6
f 379/3/6 377/3/6 380/3/6
f 381/3/6 382/3/6 387/3/6
f 382/1/6 383/1/6 387/1/6
f 387/1/6 383/1/6 388/1/6
f 384/1/6 385/1/6 389/1/6
f 385/3/6 386/3/6 390/3/6
f 389/1/6 385/1/6 390/1/6
f 390/3/6 386/3/6 391/3/6
f 381/3/6 387/3/6 392/3/6
f 392/3/6 387/3/6 393/3/6
f 393/3/6 394/3/6 397/3/6
f 397/3/6 394/3/6 398/3/6
f 395/5/6 396/5/6 399/5/6
f 399/5/6 396/5/6 400/5/6
f 398/3/6 399/3/6 401/3/6
f 401/3/6 399/3/6 402/3/6
f 403/4/6 404/4/6 405/4/6
f 405/4/6 404/4/6 406/4/6
f 405/5/6 406/5/6 407/5/6
f 407/5/6 406/5/6 408/5/6
f 409/5/6 410/5/6 411/5/6
f 411/5/6 410/5/6 412/5/6
f 413/4/6 414/4/6 415/4/6
f 415/4/6 414/4/6 416/4/6
f 417/4/6 418/4/6 419/4/6
f 419/4/6 418/4/6 420/4/6
