# MagicaVoxel @ Ephtracy

# group
o 

# material
mtllib Player-Gun-Shoot.mtl
usemtl palette

# normals
vn -1 0 0
vn 1 0 0
vn 0 0 1
vn 0 0 -1
vn 0 -1 0
vn 0 1 0

# texcoords
vt 0.158203 0.5
vt 0.794922 0.5
vt 0.826172 0.5
vt 0.958984 0.5
vt 0.982422 0.5
vt 0.986328 0.5

# verts
v -0.3 1.2 -3.72529e-008
v -0.3 1.2 -0.2
v -0.3 1.3 -3.72529e-008
v -0.3 1.3 -0.2
v -0.2 0 -3.72529e-008
v -0.2 0 -0.1
v -0.2 0.2 -3.72529e-008
v -0.2 0.2 -0.1
v -0.2 0.8 -3.72529e-008
v -0.2 0.8 -0.1
v -0.2 1.2 -3.72529e-008
v -0.2 1.2 -0.1
v -0.2 1.2 -0.2
v -0.2 1.2 -0.3
v -0.2 1.2 -0.9
v -0.2 1.2 -1
v -0.2 1.3 -0.2
v -0.2 1.3 -0.3
v -0.2 1.3 -0.9
v -0.2 1.3 -1
v -0.1 1.2 -0.3
v -0.1 1.2 -0.4
v -0.1 1.3 -3.72529e-008
v -0.1 1.3 -0.1
v -0.1 1.3 -0.3
v -0.1 1.3 -0.4
v -0.1 1.4 -0.1
v -0.1 1.4 -0.2
v -0.1 1.5 -3.72529e-008
v -0.1 1.5 -0.1
v -0.1 1.6 -3.72529e-008
v -0.1 1.6 -0.1
v -0.1 1.6 -0.2
v -0.1 1.7 -0.1
v -0.1 1.7 -0.2
v 2.98023e-008 1 -0.9
v 2.98023e-008 1 -1
v 2.98023e-008 1.1 -0.1
v 2.98023e-008 1.1 -0.2
v 2.98023e-008 1.1 -0.3
v 2.98023e-008 1.1 -0.4
v 2.98023e-008 1.1 -0.9
v 2.98023e-008 1.1 -1
v 2.98023e-008 1.2 -0.1
v 2.98023e-008 1.2 -0.2
v 2.98023e-008 1.2 -0.3
v 2.98023e-008 1.2 -0.4
v 2.98023e-008 1.2 -0.7
v 2.98023e-008 1.2 -0.8
v 2.98023e-008 1.3 -0.2
v 2.98023e-008 1.3 -0.3
v 2.98023e-008 1.3 -0.4
v 2.98023e-008 1.3 -0.5
v 2.98023e-008 1.3 -0.7
v 2.98023e-008 1.3 -0.8
v 2.98023e-008 1.4 -0.3
v 2.98023e-008 1.4 -0.5
v 2.98023e-008 1.4 -0.9
v 2.98023e-008 1.4 -1
v 2.98023e-008 1.5 -0.9
v 2.98023e-008 1.5 -1
v 0.1 0 -3.72529e-008
v 0.1 0 -0.1
v 0.1 0.2 -3.72529e-008
v 0.1 0.2 -0.1
v 0.1 0.7 -3.72529e-008
v 0.1 0.7 -0.1
v 0.1 1.1 -0.2
v 0.1 1.1 -0.3
v 0.1 1.2 -0.2
v 0.1 1.2 -0.3
v 0.2 1.1 -0.1
v 0.2 1.1 -0.2
v 0.2 1.2 -0.1
v 0.2 1.2 -0.2
v 0.2 1.2 -0.9
v 0.2 1.2 -1
v 0.2 1.3 -0.9
v 0.2 1.3 -1
v -0.2 1.2 -0.1
v -0.2 1.2 -0.2
v -0.2 1.3 -0.1
v -0.2 1.3 -0.2
v -0.1 0 -3.72529e-008
v -0.1 0 -0.1
v -0.1 0.2 -3.72529e-008
v -0.1 0.2 -0.1
v -0.1 0.7 -3.72529e-008
v -0.1 0.7 -0.1
v -0.1 1.2 -0.2
v -0.1 1.2 -0.3
v -0.1 1.2 -0.9
v -0.1 1.2 -1
v -0.1 1.3 -0.2
v -0.1 1.3 -0.3
v -0.1 1.3 -0.9
v -0.1 1.3 -1
v 0.1 1 -0.9
v 0.1 1 -1
v 0.1 1.1 -0.1
v 0.1 1.1 -0.2
v 0.1 1.1 -0.3
v 0.1 1.1 -0.4
v 0.1 1.1 -0.9
v 0.1 1.1 -1
v 0.1 1.2 -0.1
v 0.1 1.2 -0.2
v 0.1 1.2 -0.3
v 0.1 1.2 -0.4
v 0.1 1.2 -0.7
v 0.1 1.2 -0.8
v 0.1 1.3 -3.72529e-008
v 0.1 1.3 -0.1
v 0.1 1.3 -0.2
v 0.1 1.3 -0.3
v 0.1 1.3 -0.5
v 0.1 1.3 -0.7
v 0.1 1.3 -0.8
v 0.1 1.4 -0.1
v 0.1 1.4 -0.2
v 0.1 1.4 -0.3
v 0.1 1.4 -0.5
v 0.1 1.4 -0.9
v 0.1 1.4 -1
v 0.1 1.5 -3.72529e-008
v 0.1 1.5 -0.1
v 0.1 1.5 -0.9
v 0.1 1.5 -1
v 0.1 1.6 -3.72529e-008
v 0.1 1.6 -0.1
v 0.1 1.6 -0.2
v 0.1 1.7 -0.1
v 0.1 1.7 -0.2
v 0.2 0 -3.72529e-008
v 0.2 0 -0.1
v 0.2 0.2 -3.72529e-008
v 0.2 0.2 -0.1
v 0.2 0.8 -3.72529e-008
v 0.2 0.8 -0.1
v 0.2 1.1 -3.72529e-008
v 0.2 1.1 -0.1
v 0.2 1.1 -0.2
v 0.2 1.1 -0.3
v 0.2 1.2 -0.2
v 0.2 1.2 -0.3
v 0.3 1.1 -3.72529e-008
v 0.3 1.1 -0.2
v 0.3 1.2 -0.1
v 0.3 1.2 -0.2
v 0.3 1.2 -0.9
v 0.3 1.2 -1
v 0.3 1.3 -3.72529e-008
v 0.3 1.3 -0.1
v 0.3 1.3 -0.9
v 0.3 1.3 -1
v -0.3 1.2 -3.72529e-008
v -0.3 1.3 -3.72529e-008
v -0.2 0 -3.72529e-008
v -0.2 0.2 -3.72529e-008
v -0.2 0.8 -3.72529e-008
v -0.2 1.2 -3.72529e-008
v -0.2 1.3 -3.72529e-008
v -0.1 0 -3.72529e-008
v -0.1 0.2 -3.72529e-008
v -0.1 0.7 -3.72529e-008
v -0.1 1.3 -3.72529e-008
v -0.1 1.5 -3.72529e-008
v -0.1 1.6 -3.72529e-008
v 0.1 0 -3.72529e-008
v 0.1 0.2 -3.72529e-008
v 0.1 0.7 -3.72529e-008
v 0.1 1.3 -3.72529e-008
v 0.1 1.5 -3.72529e-008
v 0.1 1.6 -3.72529e-008
v 0.2 0 -3.72529e-008
v 0.2 0.2 -3.72529e-008
v 0.2 0.8 -3.72529e-008
v 0.2 1.1 -3.72529e-008
v 0.2 1.3 -3.72529e-008
v 0.3 1.1 -3.72529e-008
v 0.3 1.3 -3.72529e-008
v -0.1 1.6 -0.1
v -0.1 1.7 -0.1
v 0.1 1.6 -0.1
v 0.1 1.7 -0.1
v -0.2 1.2 -0.2
v -0.2 1.3 -0.2
v -0.1 1.2 -0.2
v -0.1 1.3 -0.2
v 2.98023e-008 1.2 -0.2
v 2.98023e-008 1.3 -0.2
v 0.1 1.1 -0.2
v 0.1 1.2 -0.2
v 0.1 1.3 -0.2
v 0.2 1.1 -0.2
v 0.2 1.2 -0.2
v -0.1 1.2 -0.3
v -0.1 1.3 -0.3
v 2.98023e-008 1.1 -0.3
v 2.98023e-008 1.2 -0.3
v 2.98023e-008 1.3 -0.3
v 2.98023e-008 1.4 -0.3
v 0.1 1.1 -0.3
v 0.1 1.2 -0.3
v 0.1 1.3 -0.3
v 0.1 1.4 -0.3
v -0.2 1.2 -0.9
v -0.2 1.3 -0.9
v -0.1 1.2 -0.9
v -0.1 1.3 -0.9
v 2.98023e-008 1 -0.9
v 2.98023e-008 1.1 -0.9
v 2.98023e-008 1.4 -0.9
v 2.98023e-008 1.5 -0.9
v 0.1 1 -0.9
v 0.1 1.1 -0.9
v 0.1 1.4 -0.9
v 0.1 1.5 -0.9
v 0.2 1.2 -0.9
v 0.2 1.3 -0.9
v 0.3 1.2 -0.9
v 0.3 1.3 -0.9
v -0.2 0 -0.1
v -0.2 0.2 -0.1
v -0.2 0.8 -0.1
v -0.2 1.2 -0.1
v -0.2 1.3 -0.1
v -0.1 0 -0.1
v -0.1 0.2 -0.1
v -0.1 0.7 -0.1
v -0.1 1.3 -0.1
v -0.1 1.4 -0.1
v 2.98023e-008 1.1 -0.1
v 2.98023e-008 1.2 -0.1
v 0.1 0 -0.1
v 0.1 0.2 -0.1
v 0.1 0.7 -0.1
v 0.1 1.1 -0.1
v 0.1 1.2 -0.1
v 0.1 1.3 -0.1
v 0.1 1.4 -0.1
v 0.2 0 -0.1
v 0.2 0.2 -0.1
v 0.2 0.8 -0.1
v 0.2 1.1 -0.1
v 0.2 1.2 -0.1
v 0.2 1.3 -0.1
v 0.3 1.2 -0.1
v 0.3 1.3 -0.1
v -0.3 1.2 -0.2
v -0.3 1.3 -0.2
v -0.2 1.2 -0.2
v -0.2 1.3 -0.2
v -0.1 1.4 -0.2
v -0.1 1.6 -0.2
v -0.1 1.7 -0.2
v 2.98023e-008 1.1 -0.2
v 2.98023e-008 1.2 -0.2
v 0.1 1.1 -0.2
v 0.1 1.2 -0.2
v 0.1 1.4 -0.2
v 0.1 1.6 -0.2
v 0.1 1.7 -0.2
v 0.2 1.1 -0.2
v 0.2 1.2 -0.2
v 0.3 1.1 -0.2
v 0.3 1.2 -0.2
v -0.2 1.2 -0.3
v -0.2 1.3 -0.3
v -0.1 1.2 -0.3
v -0.1 1.3 -0.3
v 0.1 1.1 -0.3
v 0.1 1.2 -0.3
v 0.2 1.1 -0.3
v 0.2 1.2 -0.3
v -0.1 1.2 -0.4
v -0.1 1.3 -0.4
v 2.98023e-008 1.1 -0.4
v 2.98023e-008 1.2 -0.4
v 2.98023e-008 1.3 -0.4
v 0.1 1.1 -0.4
v 0.1 1.2 -0.4
v 2.98023e-008 1.3 -0.5
v 2.98023e-008 1.4 -0.5
v 0.1 1.3 -0.5
v 0.1 1.4 -0.5
v 2.98023e-008 1.2 -0.8
v 2.98023e-008 1.3 -0.8
v 0.1 1.2 -0.8
v 0.1 1.3 -0.8
v -0.2 1.2 -1
v -0.2 1.3 -1
v -0.1 1.2 -1
v -0.1 1.3 -1
v 2.98023e-008 1 -1
v 2.98023e-008 1.1 -1
v 2.98023e-008 1.4 -1
v 2.98023e-008 1.5 -1
v 0.1 1 -1
v 0.1 1.1 -1
v 0.1 1.4 -1
v 0.1 1.5 -1
v 0.2 1.2 -1
v 0.2 1.3 -1
v 0.3 1.2 -1
v 0.3 1.3 -1
v -0.2 0 -3.72529e-008
v -0.1 0 -3.72529e-008
v 0.1 0 -3.72529e-008
v 0.2 0 -3.72529e-008
v -0.2 0 -0.1
v -0.1 0 -0.1
v 0.1 0 -0.1
v 0.2 0 -0.1
v -0.1 0.7 -3.72529e-008
v 0.1 0.7 -3.72529e-008
v -0.1 0.7 -0.1
v 0.1 0.7 -0.1
v 2.98023e-008 1 -0.9
v 0.1 1 -0.9
v 2.98023e-008 1 -1
v 0.1 1 -1
v 0.2 1.1 -3.72529e-008
v 0.3 1.1 -3.72529e-008
v 2.98023e-008 1.1 -0.1
v 0.1 1.1 -0.1
v 0.2 1.1 -0.1
v 2.98023e-008 1.1 -0.2
v 0.1 1.1 -0.2
v 0.2 1.1 -0.2
v 0.3 1.1 -0.2
v 2.98023e-008 1.1 -0.3
v 0.1 1.1 -0.3
v 0.2 1.1 -0.3
v 2.98023e-008 1.1 -0.4
v 0.1 1.1 -0.4
v -0.3 1.2 -3.72529e-008
v -0.2 1.2 -3.72529e-008
v -0.2 1.2 -0.1
v -0.3 1.2 -0.2
v -0.2 1.2 -0.2
v -0.1 1.2 -0.2
v 2.98023e-008 1.2 -0.2
v 0.1 1.2 -0.2
v -0.2 1.2 -0.3
v -0.1 1.2 -0.3
v 2.98023e-008 1.2 -0.3
v 0.1 1.2 -0.3
v -0.1 1.2 -0.4
v 2.98023e-008 1.2 -0.4
v 0.1 1.2 -0.4
v 2.98023e-008 1.2 -0.7
v 0.1 1.2 -0.7
v 2.98023e-008 1.2 -0.8
v 0.1 1.2 -0.8
v -0.2 1.2 -0.9
v -0.1 1.2 -0.9
v 0.2 1.2 -0.9
v 0.3 1.2 -0.9
v -0.2 1.2 -1
v -0.1 1.2 -1
v 0.2 1.2 -1
v 0.3 1.2 -1
v -0.1 1.4 -0.1
v 0.1 1.4 -0.1
v -0.1 1.4 -0.2
v 0.1 1.4 -0.2
v 2.98023e-008 1.4 -0.9
v 0.1 1.4 -0.9
v 2.98023e-008 1.4 -1
v 0.1 1.4 -1
v 2.98023e-008 1.1 -0.9
v 0.1 1.1 -0.9
v 2.98023e-008 1.1 -1
v 0.1 1.1 -1
v 2.98023e-008 1.2 -0.1
v 0.1 1.2 -0.1
v 0.2 1.2 -0.1
v 0.3 1.2 -0.1
v 2.98023e-008 1.2 -0.2
v 0.1 1.2 -0.2
v 0.2 1.2 -0.2
v 0.3 1.2 -0.2
v 0.1 1.2 -0.3
v 0.2 1.2 -0.3
v -0.3 1.3 -3.72529e-008
v -0.2 1.3 -3.72529e-008
v -0.1 1.3 -3.72529e-008
v 0.1 1.3 -3.72529e-008
v 0.2 1.3 -3.72529e-008
v 0.3 1.3 -3.72529e-008
v -0.2 1.3 -0.1
v -0.1 1.3 -0.1
v 0.1 1.3 -0.1
v 0.2 1.3 -0.1
v 0.3 1.3 -0.1
v -0.3 1.3 -0.2
v -0.2 1.3 -0.2
v -0.1 1.3 -0.2
v 2.98023e-008 1.3 -0.2
v 0.1 1.3 -0.2
v -0.2 1.3 -0.3
v -0.1 1.3 -0.3
v 2.98023e-008 1.3 -0.3
v 0.1 1.3 -0.3
v -0.1 1.3 -0.4
v 2.98023e-008 1.3 -0.4
v 2.98023e-008 1.3 -0.5
v 0.1 1.3 -0.5
v 2.98023e-008 1.3 -0.7
v 0.1 1.3 -0.7
v 2.98023e-008 1.3 -0.8
v 0.1 1.3 -0.8
v -0.2 1.3 -0.9
v -0.1 1.3 -0.9
v 0.2 1.3 -0.9
v 0.3 1.3 -0.9
v -0.2 1.3 -1
v -0.1 1.3 -1
v 0.2 1.3 -1
v 0.3 1.3 -1
v 2.98023e-008 1.4 -0.3
v 0.1 1.4 -0.3
v 2.98023e-008 1.4 -0.5
v 0.1 1.4 -0.5
v 2.98023e-008 1.5 -0.9
v 0.1 1.5 -0.9
v 2.98023e-008 1.5 -1
v 0.1 1.5 -1
v -0.1 1.6 -3.72529e-008
v 0.1 1.6 -3.72529e-008
v -0.1 1.6 -0.1
v 0.1 1.6 -0.1
v -0.1 1.7 -0.1
v 0.1 1.7 -0.1
v -0.1 1.7 -0.2
v 0.1 1.7 -0.2

# faces
f 3/4/1 2/4/1 1/4/1
f 4/4/1 2/4/1 3/4/1
f 7/4/1 6/4/1 5/4/1
f 8/4/1 6/4/1 7/4/1
f 9/3/1 8/3/1 7/3/1
f 10/3/1 8/3/1 9/3/1
f 11/2/1 10/2/1 9/2/1
f 12/2/1 10/2/1 11/2/1
f 17/4/1 14/4/1 13/4/1
f 18/4/1 14/4/1 17/4/1
f 19/1/1 16/1/1 15/1/1
f 20/1/1 16/1/1 19/1/1
f 25/4/1 22/4/1 21/4/1
f 26/4/1 22/4/1 25/4/1
f 27/4/1 24/4/1 23/4/1
f 29/4/1 27/4/1 23/4/1
f 29/4/1 28/4/1 27/4/1
f 30/4/1 28/4/1 29/4/1
f 31/5/1 30/5/1 29/5/1
f 32/4/1 28/4/1 30/4/1
f 32/5/1 30/5/1 31/5/1
f 33/4/1 28/4/1 32/4/1
f 34/5/1 33/5/1 32/5/1
f 35/5/1 33/5/1 34/5/1
f 42/1/1 37/1/1 36/1/1
f 43/1/1 37/1/1 42/1/1
f 44/6/1 39/6/1 38/6/1
f 45/6/1 39/6/1 44/6/1
f 46/5/1 41/5/1 40/5/1
f 47/5/1 41/5/1 46/5/1
f 50/6/1 46/6/1 45/6/1
f 51/6/1 46/6/1 50/6/1
f 52/5/1 48/5/1 47/5/1
f 53/5/1 48/5/1 52/5/1
f 54/6/1 49/6/1 48/6/1
f 54/5/1 48/5/1 53/5/1
f 55/6/1 49/6/1 54/6/1
f 56/6/1 53/6/1 52/6/1
f 56/6/1 52/6/1 51/6/1
f 57/6/1 53/6/1 56/6/1
f 60/1/1 59/1/1 58/1/1
f 61/1/1 59/1/1 60/1/1
f 64/4/1 63/4/1 62/4/1
f 65/4/1 63/4/1 64/4/1
f 66/3/1 65/3/1 64/3/1
f 67/3/1 65/3/1 66/3/1
f 70/4/1 69/4/1 68/4/1
f 71/4/1 69/4/1 70/4/1
f 74/4/1 73/4/1 72/4/1
f 75/4/1 73/4/1 74/4/1
f 78/1/1 77/1/1 76/1/1
f 79/1/1 77/1/1 78/1/1
f 80/4/2 81/4/2 82/4/2
f 82/4/2 81/4/2 83/4/2
f 84/4/2 85/4/2 86/4/2
f 86/4/2 85/4/2 87/4/2
f 86/3/2 87/3/2 88/3/2
f 88/3/2 87/3/2 89/3/2
f 90/4/2 91/4/2 94/4/2
f 94/4/2 91/4/2 95/4/2
f 92/1/2 93/1/2 96/1/2
f 96/1/2 93/1/2 97/1/2
f 98/1/2 99/1/2 104/1/2
f 104/1/2 99/1/2 105/1/2
f 100/6/2 101/6/2 106/6/2
f 106/6/2 101/6/2 107/6/2
f 102/5/2 103/5/2 108/5/2
f 108/5/2 103/5/2 109/5/2
f 107/6/2 108/6/2 114/6/2
f 108/5/2 109/5/2 115/5/2
f 114/6/2 108/6/2 115/6/2
f 109/5/2 110/5/2 115/5/2
f 115/5/2 110/5/2 116/5/2
f 110/6/2 111/6/2 117/6/2
f 116/5/2 110/5/2 117/5/2
f 117/6/2 111/6/2 118/6/2
f 112/4/2 113/4/2 119/4/2
f 115/6/2 116/6/2 121/6/2
f 121/6/2 116/6/2 122/6/2
f 119/4/2 120/4/2 125/4/2
f 112/4/2 119/4/2 125/4/2
f 125/4/2 120/4/2 126/4/2
f 123/1/2 124/1/2 127/1/2
f 127/1/2 124/1/2 128/1/2
f 125/5/2 126/5/2 129/5/2
f 126/4/2 120/4/2 130/4/2
f 129/5/2 126/5/2 130/5/2
f 130/4/2 120/4/2 131/4/2
f 130/5/2 131/5/2 132/5/2
f 132/5/2 131/5/2 133/5/2
f 134/4/2 135/4/2 136/4/2
f 136/4/2 135/4/2 137/4/2
f 136/3/2 137/3/2 138/3/2
f 138/3/2 137/3/2 139/3/2
f 138/2/2 139/2/2 140/2/2
f 140/2/2 139/2/2 141/2/2
f 142/4/2 143/4/2 144/4/2
f 144/4/2 143/4/2 145/4/2
f 146/4/2 147/4/2 148/4/2
f 148/4/2 147/4/2 149/4/2
f 146/4/2 148/4/2 152/4/2
f 152/4/2 148/4/2 153/4/2
f 150/1/2 151/1/2 154/1/2
f 154/1/2 151/1/2 155/1/2
f 161/4/3 157/4/3 156/4/3
f 162/4/3 157/4/3 161/4/3
f 163/4/3 159/4/3 158/4/3
f 164/3/3 160/3/3 159/3/3
f 164/4/3 159/4/3 163/4/3
f 165/3/3 160/3/3 164/3/3
f 166/2/3 161/2/3 160/2/3
f 166/2/3 162/2/3 161/2/3
f 171/3/3 160/3/3 165/3/3
f 172/2/3 166/2/3 160/2/3
f 172/4/3 167/4/3 166/4/3
f 173/5/3 168/5/3 167/5/3
f 173/4/3 167/4/3 172/4/3
f 174/5/3 168/5/3 173/5/3
f 175/4/3 170/4/3 169/4/3
f 176/3/3 171/3/3 170/3/3
f 176/4/3 170/4/3 175/4/3
f 177/2/3 172/2/3 160/2/3
f 177/3/3 171/3/3 176/3/3
f 177/3/3 160/3/3 171/3/3
f 178/2/3 172/2/3 177/2/3
f 179/2/3 172/2/3 178/2/3
f 180/4/3 179/4/3 178/4/3
f 181/4/3 179/4/3 180/4/3
f 184/5/3 183/5/3 182/5/3
f 185/5/3 183/5/3 184/5/3
f 188/4/3 187/4/3 186/4/3
f 189/4/3 187/4/3 188/4/3
f 193/6/3 191/6/3 190/6/3
f 194/6/3 191/6/3 193/6/3
f 195/4/3 193/4/3 192/4/3
f 196/4/3 193/4/3 195/4/3
f 200/4/3 198/4/3 197/4/3
f 201/4/3 198/4/3 200/4/3
f 203/5/3 200/5/3 199/5/3
f 204/5/3 200/5/3 203/5/3
f 205/6/3 202/6/3 201/6/3
f 206/6/3 202/6/3 205/6/3
f 209/1/3 208/1/3 207/1/3
f 210/1/3 208/1/3 209/1/3
f 215/1/3 212/1/3 211/1/3
f 216/1/3 212/1/3 215/1/3
f 217/1/3 214/1/3 213/1/3
f 218/1/3 214/1/3 217/1/3
f 221/1/3 220/1/3 219/1/3
f 222/1/3 220/1/3 221/1/3
f 223/4/4 224/4/4 228/4/4
f 224/3/4 225/3/4 229/3/4
f 228/4/4 224/4/4 229/4/4
f 229/3/4 225/3/4 230/3/4
f 226/2/4 227/2/4 231/2/4
f 225/2/4 226/2/4 231/2/4
f 225/2/4 231/2/4 233/2/4
f 233/2/4 231/2/4 234/2/4
f 230/3/4 225/3/4 237/3/4
f 225/2/4 233/2/4 238/2/4
f 234/2/4 231/2/4 239/2/4
f 231/4/4 232/4/4 240/4/4
f 239/2/4 231/2/4 240/2/4
f 240/4/4 232/4/4 241/4/4
f 235/4/4 236/4/4 242/4/4
f 236/3/4 237/3/4 243/3/4
f 242/4/4 236/4/4 243/4/4
f 238/2/4 239/2/4 244/2/4
f 243/3/4 237/3/4 244/3/4
f 225/2/4 238/2/4 244/2/4
f 239/2/4 240/2/4 244/2/4
f 237/3/4 225/3/4 244/3/4
f 244/2/4 240/2/4 245/2/4
f 245/2/4 240/2/4 246/2/4
f 246/2/4 240/2/4 247/2/4
f 246/4/4 247/4/4 248/4/4
f 248/4/4 247/4/4 249/4/4
f 250/4/4 251/4/4 252/4/4
f 252/4/4 251/4/4 253/4/4
f 257/6/4 258/6/4 259/6/4
f 259/6/4 258/6/4 260/6/4
f 254/4/4 255/4/4 261/4/4
f 255/5/4 256/5/4 262/5/4
f 261/4/4 255/4/4 262/4/4
f 262/5/4 256/5/4 263/5/4
f 264/4/4 265/4/4 266/4/4
f 266/4/4 265/4/4 267/4/4
f 268/4/4 269/4/4 270/4/4
f 270/4/4 269/4/4 271/4/4
f 272/4/4 273/4/4 274/4/4
f 274/4/4 273/4/4 275/4/4
f 276/4/4 277/4/4 279/4/4
f 279/4/4 277/4/4 280/4/4
f 278/5/4 279/5/4 281/5/4
f 281/5/4 279/5/4 282/5/4
f 283/6/4 284/6/4 285/6/4
f 285/6/4 284/6/4 286/6/4
f 287/6/4 288/6/4 289/6/4
f 289/6/4 288/6/4 290/6/4
f 291/1/4 292/1/4 293/1/4
f 293/1/4 292/1/4 294/1/4
f 295/1/4 296/1/4 299/1/4
f 299/1/4 296/1/4 300/1/4
f 297/1/4 298/1/4 301/1/4
f 301/1/4 298/1/4 302/1/4
f 303/1/4 304/1/4 305/1/4
f 305/1/4 304/1/4 306/1/4
f 311/4/5 308/4/5 307/4/5
f 312/4/5 308/4/5 311/4/5
f 313/4/5 310/4/5 309/4/5
f 314/4/5 310/4/5 313/4/5
f 317/3/5 316/3/5 315/3/5
f 318/3/5 316/3/5 317/3/5
f 321/1/5 320/1/5 319/1/5
f 322/1/5 320/1/5 321/1/5
f 327/4/5 324/4/5 323/4/5
f 328/6/5 326/6/5 325/6/5
f 329/6/5 326/6/5 328/6/5
f 330/4/5 324/4/5 327/4/5
f 331/4/5 324/4/5 330/4/5
f 333/4/5 330/4/5 329/4/5
f 334/4/5 330/4/5 333/4/5
f 335/5/5 333/5/5 332/5/5
f 336/5/5 333/5/5 335/5/5
f 339/4/5 338/4/5 337/4/5
f 340/4/5 339/4/5 337/4/5
f 341/4/5 339/4/5 340/4/5
f 345/4/5 342/4/5 341/4/5
f 346/4/5 342/4/5 345/4/5
f 347/6/5 344/6/5 343/6/5
f 348/6/5 344/6/5 347/6/5
f 349/4/5 347/4/5 346/4/5
f 350/4/5 347/4/5 349/4/5
f 352/5/5 351/5/5 350/5/5
f 353/5/5 351/5/5 352/5/5
f 354/6/5 353/6/5 352/6/5
f 355/6/5 353/6/5 354/6/5
f 360/1/5 357/1/5 356/1/5
f 361/1/5 357/1/5 360/1/5
f 362/1/5 359/1/5 358/1/5
f 363/1/5 359/1/5 362/1/5
f 366/4/5 365/4/5 364/4/5
f 367/4/5 365/4/5 366/4/5
f 370/1/5 369/1/5 368/1/5
f 371/1/5 369/1/5 370/1/5
f 372/1/6 373/1/6 374/1/6
f 374/1/6 373/1/6 375/1/6
f 376/6/6 377/6/6 380/6/6
f 380/6/6 377/6/6 381/6/6
f 378/4/6 379/4/6 382/4/6
f 382/4/6 379/4/6 383/4/6
f 381/4/6 382/4/6 384/4/6
f 384/4/6 382/4/6 385/4/6
f 386/4/6 387/4/6 392/4/6
f 387/2/6 388/2/6 392/2/6
f 392/2/6 388/2/6 393/2/6
f 389/2/6 390/2/6 394/2/6
f 390/4/6 391/4/6 395/4/6
f 394/2/6 390/2/6 395/2/6
f 395/4/6 391/4/6 396/4/6
f 386/4/6 392/4/6 397/4/6
f 397/4/6 392/4/6 398/4/6
f 398/4/6 399/4/6 402/4/6
f 402/4/6 399/4/6 403/4/6
f 400/6/6 401/6/6 404/6/6
f 404/6/6 401/6/6 405/6/6
f 403/4/6 404/4/6 406/4/6
f 406/4/6 404/4/6 407/4/6
f 408/5/6 409/5/6 410/5/6
f 410/5/6 409/5/6 411/5/6
f 410/6/6 411/6/6 412/6/6
f 412/6/6 411/6/6 413/6/6
f 414/1/6 415/1/6 418/1/6
f 418/1/6 415/1/6 419/1/6
f 416/1/6 417/1/6 420/1/6
f 420/1/6 417/1/6 421/1/6
f 422/6/6 423/6/6 424/6/6
f 424/6/6 423/6/6 425/6/6
f 426/1/6 427/1/6 428/1/6
f 428/1/6 427/1/6 429/1/6
f 430/5/6 431/5/6 432/5/6
f 432/5/6 431/5/6 433/5/6
f 434/5/6 435/5/6 436/5/6
f 436/5/6 435/5/6 437/5/6
