# MagicaVoxel @ Ephtracy

# group
o 

# material
mtllib Turret-1.mtl
usemtl palette

# normals
vn -1 0 0
vn 1 0 0
vn 0 0 1
vn 0 0 -1
vn 0 -1 0
vn 0 1 0

# texcoords
vt 0.974609 0.5
vt 0.986328 0.5

# verts
v -0.5 0.2 0.1
v -0.5 0.2 7.45058e-009
v -0.5 0.3 0.1
v -0.5 0.3 7.45058e-009
v -0.3 0.2 0.2
v -0.3 0.2 0.1
v -0.3 0.2 7.45058e-009
v -0.3 0.2 -0.1
v -0.3 0.3 0.1
v -0.3 0.3 7.45058e-009
v -0.3 0.4 0.2
v -0.3 0.4 -0.1
v -0.2 0.2 -0.1
v -0.2 0.2 -0.2
v -0.2 0.3 -0.1
v -0.2 0.3 -0.2
v -0.1 0 0.1
v -0.1 0 7.45058e-009
v -0.1 0.2 0.1
v -0.1 0.2 7.45058e-009
v -1.49012e-008 0 0.1
v -1.49012e-008 0 7.45058e-009
v -1.49012e-008 0.2 0.1
v -1.49012e-008 0.2 7.45058e-009
v -1.49012e-008 0.2 -0.1
v -1.49012e-008 0.2 -0.2
v -1.49012e-008 0.3 -0.1
v -1.49012e-008 0.3 -0.2
v 0.2 0.2 0.2
v 0.2 0.2 -0.1
v 0.2 0.4 0.2
v 0.2 0.4 -0.1
v -0.3 0.2 0.2
v -0.3 0.4 0.2
v 0.1 0.2 0.2
v 0.1 0.4 0.2
v 0.2 0.2 0.2
v 0.2 0.4 0.2
v -0.5 0.2 0.1
v -0.5 0.3 0.1
v -0.3 0.2 0.1
v -0.3 0.3 0.1
v -0.1 0 0.1
v -0.1 0.2 0.1
v -1.49012e-008 0 0.1
v -1.49012e-008 0.2 0.1
v -0.5 0.2 7.45058e-009
v -0.5 0.3 7.45058e-009
v -0.3 0.2 7.45058e-009
v -0.3 0.3 7.45058e-009
v -0.1 0 7.45058e-009
v -0.1 0.2 7.45058e-009
v -1.49012e-008 0 7.45058e-009
v -1.49012e-008 0.2 7.45058e-009
v -0.3 0.2 -0.1
v -0.3 0.4 -0.1
v -0.2 0.2 -0.1
v -0.2 0.3 -0.1
v -1.49012e-008 0.2 -0.1
v -1.49012e-008 0.3 -0.1
v 0.1 0.2 -0.1
v 0.1 0.4 -0.1
v 0.2 0.2 -0.1
v 0.2 0.4 -0.1
v -0.2 0.2 -0.2
v -0.2 0.3 -0.2
v -1.49012e-008 0.2 -0.2
v -1.49012e-008 0.3 -0.2
v -0.1 0 0.1
v -1.49012e-008 0 0.1
v -0.1 0 7.45058e-009
v -1.49012e-008 0 7.45058e-009
v -0.3 0.2 0.2
v 0.1 0.2 0.2
v 0.2 0.2 0.2
v -0.5 0.2 0.1
v -0.3 0.2 0.1
v -0.1 0.2 0.1
v -1.49012e-008 0.2 0.1
v -0.5 0.2 7.45058e-009
v -0.3 0.2 7.45058e-009
v -0.1 0.2 7.45058e-009
v -1.49012e-008 0.2 7.45058e-009
v -0.3 0.2 -0.1
v -0.2 0.2 -0.1
v -1.49012e-008 0.2 -0.1
v 0.1 0.2 -0.1
v 0.2 0.2 -0.1
v -0.2 0.2 -0.2
v -1.49012e-008 0.2 -0.2
v -0.5 0.3 0.1
v -0.3 0.3 0.1
v -0.5 0.3 7.45058e-009
v -0.3 0.3 7.45058e-009
v -0.2 0.3 -0.1
v -1.49012e-008 0.3 -0.1
v -0.2 0.3 -0.2
v -1.49012e-008 0.3 -0.2
v -0.3 0.4 0.2
v 0.1 0.4 0.2
v 0.2 0.4 0.2
v -0.3 0.4 -0.1
v 0.1 0.4 -0.1
v 0.2 0.4 -0.1

# faces
f 3/2/1 2/2/1 1/2/1
f 4/2/1 2/2/1 3/2/1
f 9/1/1 6/1/1 5/1/1
f 10/1/1 8/1/1 7/1/1
f 11/1/1 9/1/1 5/1/1
f 11/1/1 10/1/1 9/1/1
f 12/1/1 8/1/1 10/1/1
f 12/1/1 10/1/1 11/1/1
f 15/2/1 14/2/1 13/2/1
f 16/2/1 14/2/1 15/2/1
f 19/2/1 18/2/1 17/2/1
f 20/2/1 18/2/1 19/2/1
f 21/2/2 22/2/2 23/2/2
f 23/2/2 22/2/2 24/2/2
f 25/2/2 26/2/2 27/2/2
f 27/2/2 26/2/2 28/2/2
f 29/2/2 30/2/2 31/2/2
f 31/2/2 30/2/2 32/2/2
f 35/1/3 34/1/3 33/1/3
f 36/1/3 34/1/3 35/1/3
f 37/2/3 36/2/3 35/2/3
f 38/2/3 36/2/3 37/2/3
f 41/2/3 40/2/3 39/2/3
f 42/2/3 40/2/3 41/2/3
f 45/2/3 44/2/3 43/2/3
f 46/2/3 44/2/3 45/2/3
f 47/2/4 48/2/4 49/2/4
f 49/2/4 48/2/4 50/2/4
f 51/2/4 52/2/4 53/2/4
f 53/2/4 52/2/4 54/2/4
f 55/1/4 56/1/4 57/1/4
f 57/1/4 56/1/4 58/1/4
f 58/1/4 56/1/4 60/1/4
f 59/1/4 60/1/4 61/1/4
f 60/1/4 56/1/4 62/1/4
f 61/1/4 60/1/4 62/1/4
f 61/2/4 62/2/4 63/2/4
f 63/2/4 62/2/4 64/2/4
f 65/2/4 66/2/4 67/2/4
f 67/2/4 66/2/4 68/2/4
f 71/2/5 70/2/5 69/2/5
f 72/2/5 70/2/5 71/2/5
f 77/1/5 74/1/5 73/1/5
f 78/1/5 74/1/5 77/1/5
f 79/1/5 74/1/5 78/1/5
f 80/2/5 77/2/5 76/2/5
f 81/1/5 78/1/5 77/1/5
f 81/2/5 77/2/5 80/2/5
f 82/1/5 78/1/5 81/1/5
f 83/1/5 74/1/5 79/1/5
f 84/1/5 82/1/5 81/1/5
f 84/1/5 83/1/5 82/1/5
f 85/1/5 83/1/5 84/1/5
f 86/1/5 74/1/5 83/1/5
f 86/1/5 83/1/5 85/1/5
f 87/2/5 75/2/5 74/2/5
f 87/1/5 74/1/5 86/1/5
f 88/2/5 75/2/5 87/2/5
f 89/2/5 86/2/5 85/2/5
f 90/2/5 86/2/5 89/2/5
f 91/2/6 92/2/6 93/2/6
f 93/2/6 92/2/6 94/2/6
f 95/2/6 96/2/6 97/2/6
f 97/2/6 96/2/6 98/2/6
f 99/1/6 100/1/6 102/1/6
f 100/2/6 101/2/6 103/2/6
f 102/1/6 100/1/6 103/1/6
f 103/2/6 101/2/6 104/2/6
