# MagicaVoxel @ Ephtracy

# group
o 

# material
mtllib Item-Pizza.mtl
usemtl palette

# normals
vn -1 0 0
vn 1 0 0
vn 0 0 1
vn 0 0 -1
vn 0 -1 0
vn 0 1 0

# texcoords
vt 0.837891 0.5
vt 0.841797 0.5
vt 0.880859 0.5
vt 0.884766 0.5

# verts
v -0.6 0 0.1
v -0.6 0 -7.45058e-009
v -0.6 0 -0.1
v -0.6 0.1 0.1
v -0.6 0.1 -7.45058e-009
v -0.6 0.1 -0.1
v -0.4 0 0.2
v -0.4 0 0.1
v -0.4 0 -0.1
v -0.4 0 -0.2
v -0.4 0.1 0.2
v -0.4 0.1 0.1
v -0.4 0.1 -0.1
v -0.4 0.1 -0.2
v -0.2 0 0.3
v -0.2 0 0.2
v -0.2 0 -0.2
v -0.2 0 -0.3
v -0.2 0.1 0.3
v -0.2 0.1 0.2
v -0.2 0.1 0.1
v -0.2 0.1 -0.1
v -0.2 0.1 -0.2
v -0.2 0.1 -0.3
v -0.2 0.2 0.1
v -0.2 0.2 -0.1
v -3.72529e-008 0 0.4
v -3.72529e-008 0 0.3
v -3.72529e-008 0 -0.3
v -3.72529e-008 0 -0.4
v -3.72529e-008 0.1 0.4
v -3.72529e-008 0.1 0.3
v -3.72529e-008 0.1 0.2
v -3.72529e-008 0.1 -0.3
v -3.72529e-008 0.1 -0.4
v -3.72529e-008 0.2 0.4
v -3.72529e-008 0.2 0.2
v 0.1 0.1 -0.1
v 0.1 0.1 -0.3
v 0.1 0.2 -0.1
v 0.1 0.2 -0.3
v 0.3 0.1 0.4
v 0.3 0.1 0.3
v 0.3 0.1 -0.3
v 0.3 0.1 -0.4
v 0.3 0.2 0.4
v 0.3 0.2 0.3
v 0.3 0.2 -0.3
v 0.3 0.2 -0.4
v 0.4 0.1 0.3
v 0.4 0.1 0.1
v 0.4 0.1 -7.45058e-009
v 0.4 0.1 -0.3
v 0.4 0.2 0.3
v 0.4 0.2 -0.3
v -3.72529e-008 0.1 0.1
v -3.72529e-008 0.1 -7.45058e-009
v -3.72529e-008 0.1 -0.1
v -3.72529e-008 0.2 0.1
v -3.72529e-008 0.2 -0.1
v 0.2 0.1 0.4
v 0.2 0.1 0.2
v 0.2 0.2 0.4
v 0.2 0.2 0.2
v 0.3 0.1 -0.1
v 0.3 0.1 -0.3
v 0.3 0.2 -0.1
v 0.3 0.2 -0.3
v 0.4 0.1 0.4
v 0.4 0.1 0.3
v 0.4 0.1 -0.3
v 0.4 0.1 -0.4
v 0.4 0.2 0.4
v 0.4 0.2 0.3
v 0.4 0.2 -0.3
v 0.4 0.2 -0.4
v 0.5 0 0.4
v 0.5 0 0.3
v 0.5 0 -0.3
v 0.5 0 -0.4
v 0.5 0.1 0.4
v 0.5 0.1 0.3
v 0.5 0.1 -0.3
v 0.5 0.1 -0.4
v 0.5 0.2 0.3
v 0.5 0.2 -0.3
v 0.6 0 0.3
v 0.6 0 -0.3
v 0.6 0.1 0.3
v 0.6 0.1 -0.3
v -3.72529e-008 0 0.4
v -3.72529e-008 0.1 0.4
v -3.72529e-008 0.2 0.4
v 0.2 0.1 0.4
v 0.2 0.2 0.4
v 0.3 0 0.4
v 0.3 0.1 0.4
v 0.3 0.2 0.4
v 0.4 0.1 0.4
v 0.4 0.2 0.4
v 0.5 0 0.4
v 0.5 0.1 0.4
v -0.2 0 0.3
v -0.2 0.1 0.3
v -3.72529e-008 0 0.3
v -3.72529e-008 0.1 0.3
v 0.4 0.1 0.3
v 0.4 0.2 0.3
v 0.5 0 0.3
v 0.5 0.1 0.3
v 0.5 0.2 0.3
v 0.6 0 0.3
v 0.6 0.1 0.3
v -0.4 0 0.2
v -0.4 0.1 0.2
v -0.2 0 0.2
v -0.2 0.1 0.2
v -0.6 0 0.1
v -0.6 0.1 0.1
v -0.5 0 0.1
v -0.5 0.1 0.1
v -0.4 0 0.1
v -0.4 0.1 0.1
v -0.2 0.1 0.1
v -0.2 0.2 0.1
v -3.72529e-008 0.1 0.1
v -3.72529e-008 0.2 0.1
v 0.1 0.1 -0.1
v 0.1 0.2 -0.1
v 0.3 0.1 -0.1
v 0.3 0.2 -0.1
v 0.3 0.1 -0.3
v 0.3 0.2 -0.3
v 0.4 0.1 -0.3
v 0.4 0.2 -0.3
v 0.3 0.1 0.3
v 0.3 0.2 0.3
v 0.4 0.1 0.3
v 0.4 0.2 0.3
v -3.72529e-008 0.1 0.2
v -3.72529e-008 0.2 0.2
v 0.1 0.1 0.2
v 0.2 0.1 0.2
v 0.2 0.2 0.2
v -0.6 0 -0.1
v -0.6 0.1 -0.1
v -0.4 0 -0.1
v -0.4 0.1 -0.1
v -0.2 0.1 -0.1
v -0.2 0.2 -0.1
v -0.1 0.1 -0.1
v -3.72529e-008 0.1 -0.1
v -3.72529e-008 0.2 -0.1
v -0.4 0 -0.2
v -0.4 0.1 -0.2
v -0.3 0 -0.2
v -0.3 0.1 -0.2
v -0.2 0 -0.2
v -0.2 0.1 -0.2
v -0.2 0 -0.3
v -0.2 0.1 -0.3
v -0.1 0 -0.3
v -0.1 0.1 -0.3
v -3.72529e-008 0 -0.3
v -3.72529e-008 0.1 -0.3
v 0.1 0.1 -0.3
v 0.1 0.2 -0.3
v 0.3 0.1 -0.3
v 0.3 0.2 -0.3
v 0.4 0.1 -0.3
v 0.4 0.2 -0.3
v 0.5 0 -0.3
v 0.5 0.1 -0.3
v 0.5 0.2 -0.3
v 0.6 0 -0.3
v 0.6 0.1 -0.3
v -3.72529e-008 0 -0.4
v -3.72529e-008 0.1 -0.4
v 0.1 0 -0.4
v 0.1 0.1 -0.4
v 0.3 0 -0.4
v 0.3 0.1 -0.4
v 0.3 0.2 -0.4
v 0.4 0.1 -0.4
v 0.4 0.2 -0.4
v 0.5 0 -0.4
v 0.5 0.1 -0.4
v -3.72529e-008 0 0.4
v 0.3 0 0.4
v 0.5 0 0.4
v -0.2 0 0.3
v -3.72529e-008 0 0.3
v 0.3 0 0.3
v 0.4 0 0.3
v 0.5 0 0.3
v 0.6 0 0.3
v -0.4 0 0.2
v -0.2 0 0.2
v -3.72529e-008 0 0.2
v 0.1 0 0.2
v -0.6 0 0.1
v -0.5 0 0.1
v -0.4 0 0.1
v -0.2 0 0.1
v 0.2 0 0.1
v 0.4 0 0.1
v -0.6 0 -7.45058e-009
v -0.5 0 -7.45058e-009
v -3.72529e-008 0 -7.45058e-009
v 0.1 0 -7.45058e-009
v 0.2 0 -7.45058e-009
v 0.4 0 -7.45058e-009
v -0.6 0 -0.1
v -0.4 0 -0.1
v -0.3 0 -0.1
v -0.1 0 -0.1
v -0.4 0 -0.2
v -0.3 0 -0.2
v -0.2 0 -0.2
v -0.2 0 -0.3
v -0.1 0 -0.3
v -3.72529e-008 0 -0.3
v 0.1 0 -0.3
v 0.3 0 -0.3
v 0.4 0 -0.3
v 0.5 0 -0.3
v 0.6 0 -0.3
v -3.72529e-008 0 -0.4
v 0.1 0 -0.4
v 0.3 0 -0.4
v 0.5 0 -0.4
v 0.2 0.1 0.4
v 0.3 0.1 0.4
v 0.4 0.1 0.4
v 0.5 0.1 0.4
v -0.2 0.1 0.3
v -3.72529e-008 0.1 0.3
v 0.3 0.1 0.3
v 0.4 0.1 0.3
v 0.5 0.1 0.3
v 0.6 0.1 0.3
v -0.4 0.1 0.2
v -0.2 0.1 0.2
v -3.72529e-008 0.1 0.2
v 0.1 0.1 0.2
v 0.2 0.1 0.2
v -0.6 0.1 0.1
v -0.5 0.1 0.1
v -0.4 0.1 0.1
v -0.2 0.1 0.1
v -3.72529e-008 0.1 0.1
v 0.2 0.1 0.1
v 0.4 0.1 0.1
v -0.6 0.1 -7.45058e-009
v -0.5 0.1 -7.45058e-009
v -3.72529e-008 0.1 -7.45058e-009
v 0.1 0.1 -7.45058e-009
v 0.2 0.1 -7.45058e-009
v 0.4 0.1 -7.45058e-009
v -0.6 0.1 -0.1
v -0.4 0.1 -0.1
v -0.3 0.1 -0.1
v -0.2 0.1 -0.1
v -0.1 0.1 -0.1
v -3.72529e-008 0.1 -0.1
v 0.1 0.1 -0.1
v 0.3 0.1 -0.1
v -0.4 0.1 -0.2
v -0.3 0.1 -0.2
v -0.2 0.1 -0.2
v -0.2 0.1 -0.3
v -0.1 0.1 -0.3
v -3.72529e-008 0.1 -0.3
v 0.1 0.1 -0.3
v 0.3 0.1 -0.3
v 0.4 0.1 -0.3
v 0.5 0.1 -0.3
v 0.6 0.1 -0.3
v -3.72529e-008 0.1 -0.4
v 0.1 0.1 -0.4
v 0.3 0.1 -0.4
v 0.4 0.1 -0.4
v 0.5 0.1 -0.4
v -3.72529e-008 0.2 0.4
v 0.2 0.2 0.4
v 0.3 0.2 0.4
v 0.4 0.2 0.4
v 0.3 0.2 0.3
v 0.4 0.2 0.3
v 0.5 0.2 0.3
v -3.72529e-008 0.2 0.2
v 0.2 0.2 0.2
v -0.2 0.2 0.1
v -3.72529e-008 0.2 0.1
v -0.2 0.2 -0.1
v -3.72529e-008 0.2 -0.1
v 0.1 0.2 -0.1
v 0.3 0.2 -0.1
v 0.1 0.2 -0.3
v 0.3 0.2 -0.3
v 0.4 0.2 -0.3
v 0.5 0.2 -0.3
v 0.3 0.2 -0.4
v 0.4 0.2 -0.4

# faces
f 4/3/1 2/3/1 1/3/1
f 5/1/1 3/1/1 2/1/1
f 5/3/1 2/3/1 4/3/1
f 6/1/1 3/1/1 5/1/1
f 11/1/1 8/1/1 7/1/1
f 12/1/1 8/1/1 11/1/1
f 13/3/1 10/3/1 9/3/1
f 14/3/1 10/3/1 13/3/1
f 19/1/1 16/1/1 15/1/1
f 20/1/1 16/1/1 19/1/1
f 23/1/1 18/1/1 17/1/1
f 24/1/1 18/1/1 23/1/1
f 25/2/1 22/2/1 21/2/1
f 26/2/1 22/2/1 25/2/1
f 31/3/1 28/3/1 27/3/1
f 32/3/1 28/3/1 31/3/1
f 34/1/1 30/1/1 29/1/1
f 35/1/1 30/1/1 34/1/1
f 36/2/1 33/2/1 32/2/1
f 36/2/1 32/2/1 31/2/1
f 37/2/1 33/2/1 36/2/1
f 40/2/1 39/2/1 38/2/1
f 41/2/1 39/2/1 40/2/1
f 46/4/1 43/4/1 42/4/1
f 47/4/1 43/4/1 46/4/1
f 48/4/1 45/4/1 44/4/1
f 49/4/1 45/4/1 48/4/1
f 54/4/1 51/4/1 50/4/1
f 54/4/1 53/4/1 52/4/1
f 54/4/1 52/4/1 51/4/1
f 55/4/1 53/4/1 54/4/1
f 56/2/2 57/2/2 59/2/2
f 57/2/2 58/2/2 59/2/2
f 59/2/2 58/2/2 60/2/2
f 61/2/2 62/2/2 63/2/2
f 63/2/2 62/2/2 64/2/2
f 65/2/2 66/2/2 67/2/2
f 67/2/2 66/2/2 68/2/2
f 69/4/2 70/4/2 73/4/2
f 73/4/2 70/4/2 74/4/2
f 71/4/2 72/4/2 75/4/2
f 75/4/2 72/4/2 76/4/2
f 77/4/2 78/4/2 81/4/2
f 81/4/2 78/4/2 82/4/2
f 79/4/2 80/4/2 83/4/2
f 83/4/2 80/4/2 84/4/2
f 82/4/2 83/4/2 85/4/2
f 85/4/2 83/4/2 86/4/2
f 87/4/2 88/4/2 89/4/2
f 89/4/2 88/4/2 90/4/2
f 94/3/3 92/3/3 91/3/3
f 94/2/3 93/2/3 92/2/3
f 95/2/3 93/2/3 94/2/3
f 96/3/3 94/3/3 91/3/3
f 97/3/3 94/3/3 96/3/3
f 99/4/3 97/4/3 96/4/3
f 99/4/3 98/4/3 97/4/3
f 100/4/3 98/4/3 99/4/3
f 101/4/3 99/4/3 96/4/3
f 102/4/3 99/4/3 101/4/3
f 105/1/3 104/1/3 103/1/3
f 106/1/3 104/1/3 105/1/3
f 110/4/3 108/4/3 107/4/3
f 111/4/3 108/4/3 110/4/3
f 112/4/3 110/4/3 109/4/3
f 113/4/3 110/4/3 112/4/3
f 116/1/3 115/1/3 114/1/3
f 117/1/3 115/1/3 116/1/3
f 120/3/3 119/3/3 118/3/3
f 121/3/3 119/3/3 120/3/3
f 122/1/3 121/1/3 120/1/3
f 123/1/3 121/1/3 122/1/3
f 126/2/3 125/2/3 124/2/3
f 127/2/3 125/2/3 126/2/3
f 130/2/3 129/2/3 128/2/3
f 131/2/3 129/2/3 130/2/3
f 134/4/3 133/4/3 132/4/3
f 135/4/3 133/4/3 134/4/3
f 136/4/4 137/4/4 138/4/4
f 138/4/4 137/4/4 139/4/4
f 140/2/4 141/2/4 142/2/4
f 142/2/4 141/2/4 143/2/4
f 143/2/4 141/2/4 144/2/4
f 145/1/4 146/1/4 147/1/4
f 147/1/4 146/1/4 148/1/4
f 149/2/4 150/2/4 151/2/4
f 151/2/4 150/2/4 152/2/4
f 152/2/4 150/2/4 153/2/4
f 154/3/4 155/3/4 156/3/4
f 156/3/4 155/3/4 157/3/4
f 156/1/4 157/1/4 158/1/4
f 158/1/4 157/1/4 159/1/4
f 160/1/4 161/1/4 162/1/4
f 162/1/4 161/1/4 163/1/4
f 162/3/4 163/3/4 164/3/4
f 164/3/4 163/3/4 165/3/4
f 166/2/4 167/2/4 168/2/4
f 168/2/4 167/2/4 169/2/4
f 170/4/4 171/4/4 173/4/4
f 173/4/4 171/4/4 174/4/4
f 172/4/4 173/4/4 175/4/4
f 175/4/4 173/4/4 176/4/4
f 177/1/4 178/1/4 179/1/4
f 179/1/4 178/1/4 180/1/4
f 179/3/4 180/3/4 181/3/4
f 181/3/4 180/3/4 182/3/4
f 181/4/4 182/4/4 184/4/4
f 182/4/4 183/4/4 184/4/4
f 184/4/4 183/4/4 185/4/4
f 181/4/4 184/4/4 186/4/4
f 186/4/4 184/4/4 187/4/4
f 192/3/5 189/3/5 188/3/5
f 193/4/5 190/4/5 189/4/5
f 193/3/5 189/3/5 192/3/5
f 194/4/5 190/4/5 193/4/5
f 195/4/5 190/4/5 194/4/5
f 198/1/5 192/1/5 191/1/5
f 199/3/5 193/3/5 192/3/5
f 199/3/5 194/3/5 193/3/5
f 199/1/5 192/1/5 198/1/5
f 200/3/5 194/3/5 199/3/5
f 203/1/5 198/1/5 197/1/5
f 204/3/5 199/3/5 198/3/5
f 204/1/5 198/1/5 203/1/5
f 205/3/5 194/3/5 200/3/5
f 206/4/5 196/4/5 195/4/5
f 206/3/5 194/3/5 205/3/5
f 206/4/5 195/4/5 194/4/5
f 207/3/5 202/3/5 201/3/5
f 208/1/5 203/1/5 202/1/5
f 208/3/5 202/3/5 207/3/5
f 209/3/5 204/3/5 203/3/5
f 209/1/5 200/1/5 199/1/5
f 209/3/5 199/3/5 204/3/5
f 210/3/5 205/3/5 200/3/5
f 210/1/5 200/1/5 209/1/5
f 211/1/5 206/1/5 205/1/5
f 211/3/5 205/3/5 210/3/5
f 212/4/5 196/4/5 206/4/5
f 212/1/5 206/1/5 211/1/5
f 213/1/5 208/1/5 207/1/5
f 214/3/5 209/3/5 203/3/5
f 214/1/5 208/1/5 213/1/5
f 214/3/5 211/3/5 210/3/5
f 214/3/5 212/3/5 211/3/5
f 214/1/5 203/1/5 208/1/5
f 214/3/5 210/3/5 209/3/5
f 215/3/5 212/3/5 214/3/5
f 216/3/5 212/3/5 215/3/5
f 217/3/5 215/3/5 214/3/5
f 218/1/5 216/1/5 215/1/5
f 218/3/5 215/3/5 217/3/5
f 219/1/5 216/1/5 218/1/5
f 220/1/5 216/1/5 219/1/5
f 221/3/5 212/3/5 216/3/5
f 221/1/5 216/1/5 220/1/5
f 222/3/5 212/3/5 221/3/5
f 223/3/5 212/3/5 222/3/5
f 224/3/5 212/3/5 223/3/5
f 225/4/5 196/4/5 212/4/5
f 225/3/5 212/3/5 224/3/5
f 226/4/5 196/4/5 225/4/5
f 227/4/5 196/4/5 226/4/5
f 228/1/5 223/1/5 222/1/5
f 229/3/5 224/3/5 223/3/5
f 229/1/5 223/1/5 228/1/5
f 230/4/5 226/4/5 225/4/5
f 230/3/5 224/3/5 229/3/5
f 230/4/5 225/4/5 224/4/5
f 231/4/5 226/4/5 230/4/5
f 232/3/6 233/3/6 238/3/6
f 234/4/6 235/4/6 239/4/6
f 239/4/6 235/4/6 240/4/6
f 236/1/6 237/1/6 243/1/6
f 243/1/6 237/1/6 244/1/6
f 232/3/6 238/3/6 246/3/6
f 238/3/6 239/3/6 246/3/6
f 242/1/6 243/1/6 249/1/6
f 243/3/6 244/3/6 250/3/6
f 249/1/6 243/1/6 250/1/6
f 244/1/6 245/1/6 251/1/6
f 250/3/6 244/3/6 251/3/6
f 246/3/6 239/3/6 252/3/6
f 245/3/6 246/3/6 252/3/6
f 252/3/6 239/3/6 253/3/6
f 247/3/6 248/3/6 254/3/6
f 248/1/6 249/1/6 255/1/6
f 254/3/6 248/3/6 255/3/6
f 251/1/6 245/1/6 256/1/6
f 245/3/6 252/3/6 257/3/6
f 256/1/6 245/1/6 257/1/6
f 252/1/6 253/1/6 258/1/6
f 257/3/6 252/3/6 258/3/6
f 258/1/6 253/1/6 259/1/6
f 254/1/6 255/1/6 260/1/6
f 249/3/6 250/3/6 261/3/6
f 260/1/6 255/1/6 261/1/6
f 255/1/6 249/1/6 261/1/6
f 261/3/6 250/3/6 262/3/6
f 262/3/6 250/3/6 263/3/6
f 258/3/6 259/3/6 265/3/6
f 256/3/6 257/3/6 265/3/6
f 257/3/6 258/3/6 265/3/6
f 265/3/6 259/3/6 266/3/6
f 266/3/6 259/3/6 267/3/6
f 261/3/6 262/3/6 268/3/6
f 263/1/6 264/1/6 269/1/6
f 268/3/6 262/3/6 269/3/6
f 262/1/6 263/1/6 269/1/6
f 269/1/6 264/1/6 270/1/6
f 270/1/6 264/1/6 271/1/6
f 264/3/6 265/3/6 272/3/6
f 271/1/6 264/1/6 272/1/6
f 265/3/6 266/3/6 272/3/6
f 272/3/6 266/3/6 273/3/6
f 273/3/6 266/3/6 274/3/6
f 267/3/6 259/3/6 275/3/6
f 275/3/6 259/3/6 276/3/6
f 240/4/6 241/4/6 277/4/6
f 277/4/6 241/4/6 278/4/6
f 273/1/6 274/1/6 279/1/6
f 274/3/6 275/3/6 280/3/6
f 279/1/6 274/1/6 280/1/6
f 280/3/6 275/3/6 281/3/6
f 276/4/6 277/4/6 282/4/6
f 282/4/6 277/4/6 283/4/6
f 286/4/6 287/4/6 288/4/6
f 288/4/6 287/4/6 289/4/6
f 284/2/6 285/2/6 291/2/6
f 291/2/6 285/2/6 292/2/6
f 293/2/6 294/2/6 295/2/6
f 295/2/6 294/2/6 296/2/6
f 297/2/6 298/2/6 299/2/6
f 299/2/6 298/2/6 300/2/6
f 289/4/6 290/4/6 301/4/6
f 301/4/6 290/4/6 302/4/6
f 300/4/6 301/4/6 303/4/6
f 303/4/6 301/4/6 304/4/6
