# MagicaVoxel @ Ephtracy

# group
o 

# material
mtllib Zombie-Walk.mtl
usemtl palette

# normals
vn -1 0 0
vn 1 0 0
vn 0 0 1
vn 0 0 -1
vn 0 -1 0
vn 0 1 0

# texcoords
vt 0.927734 0.5
vt 0.958984 0.5
vt 0.978516 0.5
vt 0.982422 0.5

# verts
v -0.3 1.2 0
v -0.3 1.2 -0.6
v -0.3 1.3 0
v -0.3 1.3 -0.6
v -0.2 0 0
v -0.2 0 -0.1
v -0.2 0.2 0
v -0.2 0.2 -0.1
v -0.2 0.8 0
v -0.2 0.8 -0.1
v -0.2 1.2 0
v -0.2 1.2 -0.1
v -0.1 1.3 0
v -0.1 1.3 -0.1
v -0.1 1.4 -0.1
v -0.1 1.4 -0.2
v -0.1 1.5 0
v -0.1 1.5 -0.1
v -0.1 1.6 0
v -0.1 1.6 -0.1
v -0.1 1.6 -0.2
v -0.1 1.7 -0.1
v -0.1 1.7 -0.2
v 0.1 0.7 -0.1
v 0.1 0.7 -0.5
v 0.1 0.7 -0.7
v 0.1 0.8 -0.1
v 0.1 0.8 -0.5
v 0.1 0.8 -0.7
v 0.2 1.2 -0.1
v 0.2 1.2 -0.6
v 0.2 1.3 -0.1
v 0.2 1.3 -0.6
v -0.2 1.2 -0.1
v -0.2 1.2 -0.6
v -0.2 1.3 -0.1
v -0.2 1.3 -0.6
v -0.1 0 0
v -0.1 0 -0.1
v -0.1 0.2 0
v -0.1 0.2 -0.1
v -0.1 0.7 0
v -0.1 0.7 -0.1
v 0.1 1.3 0
v 0.1 1.3 -0.1
v 0.1 1.4 -0.1
v 0.1 1.4 -0.2
v 0.1 1.5 0
v 0.1 1.5 -0.1
v 0.1 1.6 0
v 0.1 1.6 -0.1
v 0.1 1.6 -0.2
v 0.1 1.7 -0.1
v 0.1 1.7 -0.2
v 0.2 0.7 0
v 0.2 0.7 -0.5
v 0.2 0.7 -0.7
v 0.2 0.8 0
v 0.2 0.8 -0.1
v 0.2 0.8 -0.5
v 0.2 0.8 -0.7
v 0.2 1.2 0
v 0.2 1.2 -0.1
v 0.3 1.2 0
v 0.3 1.2 -0.6
v 0.3 1.3 0
v 0.3 1.3 -0.6
v -0.3 1.2 0
v -0.3 1.3 0
v -0.2 0 0
v -0.2 0.2 0
v -0.2 0.8 0
v -0.2 1.2 0
v -0.2 1.3 0
v -0.1 0 0
v -0.1 0.2 0
v -0.1 0.7 0
v -0.1 1.3 0
v -0.1 1.5 0
v -0.1 1.6 0
v 0.1 1.3 0
v 0.1 1.5 0
v 0.1 1.6 0
v 0.2 0.7 0
v 0.2 0.8 0
v 0.2 1.2 0
v 0.2 1.3 0
v 0.3 1.2 0
v 0.3 1.3 0
v -0.1 1.6 -0.1
v -0.1 1.7 -0.1
v 0.1 1.6 -0.1
v 0.1 1.7 -0.1
v -0.2 0 -0.1
v -0.2 0.2 -0.1
v -0.2 0.8 -0.1
v -0.2 1.2 -0.1
v -0.2 1.3 -0.1
v -0.1 0 -0.1
v -0.1 0.2 -0.1
v -0.1 0.7 -0.1
v -0.1 1.3 -0.1
v -0.1 1.4 -0.1
v 0.1 0.7 -0.1
v 0.1 0.8 -0.1
v 0.1 1.3 -0.1
v 0.1 1.4 -0.1
v 0.2 0.8 -0.1
v 0.2 1.2 -0.1
v 0.2 1.3 -0.1
v -0.1 1.4 -0.2
v -0.1 1.6 -0.2
v -0.1 1.7 -0.2
v 0.1 1.4 -0.2
v 0.1 1.6 -0.2
v 0.1 1.7 -0.2
v -0.3 1.2 -0.6
v -0.3 1.3 -0.6
v -0.2 1.2 -0.6
v -0.2 1.3 -0.6
v 0.2 1.2 -0.6
v 0.2 1.3 -0.6
v 0.3 1.2 -0.6
v 0.3 1.3 -0.6
v 0.1 0.7 -0.7
v 0.1 0.8 -0.7
v 0.2 0.7 -0.7
v 0.2 0.8 -0.7
v -0.2 0 0
v -0.1 0 0
v -0.2 0 -0.1
v -0.1 0 -0.1
v -0.1 0.7 0
v 0.2 0.7 0
v -0.1 0.7 -0.1
v 0.1 0.7 -0.1
v 0.1 0.7 -0.5
v 0.2 0.7 -0.5
v 0.1 0.7 -0.7
v 0.2 0.7 -0.7
v -0.3 1.2 0
v -0.2 1.2 0
v 0.2 1.2 0
v 0.3 1.2 0
v -0.2 1.2 -0.1
v 0.2 1.2 -0.1
v -0.3 1.2 -0.6
v -0.2 1.2 -0.6
v 0.2 1.2 -0.6
v 0.3 1.2 -0.6
v -0.1 1.4 -0.1
v 0.1 1.4 -0.1
v -0.1 1.4 -0.2
v 0.1 1.4 -0.2
v 0.1 0.8 -0.1
v 0.2 0.8 -0.1
v 0.1 0.8 -0.5
v 0.2 0.8 -0.5
v 0.1 0.8 -0.7
v 0.2 0.8 -0.7
v -0.3 1.3 0
v -0.2 1.3 0
v -0.1 1.3 0
v 0.1 1.3 0
v 0.2 1.3 0
v 0.3 1.3 0
v -0.2 1.3 -0.1
v -0.1 1.3 -0.1
v 0.1 1.3 -0.1
v 0.2 1.3 -0.1
v -0.3 1.3 -0.6
v -0.2 1.3 -0.6
v 0.2 1.3 -0.6
v 0.3 1.3 -0.6
v -0.1 1.6 0
v 0.1 1.6 0
v -0.1 1.6 -0.1
v 0.1 1.6 -0.1
v -0.1 1.7 -0.1
v 0.1 1.7 -0.1
v -0.1 1.7 -0.2
v 0.1 1.7 -0.2

# faces
f 3/2/1 2/2/1 1/2/1
f 4/2/1 2/2/1 3/2/1
f 7/2/1 6/2/1 5/2/1
f 8/2/1 6/2/1 7/2/1
f 9/3/1 8/3/1 7/3/1
f 10/3/1 8/3/1 9/3/1
f 11/1/1 10/1/1 9/1/1
f 12/1/1 10/1/1 11/1/1
f 15/2/1 14/2/1 13/2/1
f 17/2/1 15/2/1 13/2/1
f 17/2/1 16/2/1 15/2/1
f 18/2/1 16/2/1 17/2/1
f 19/4/1 18/4/1 17/4/1
f 20/2/1 16/2/1 18/2/1
f 20/4/1 18/4/1 19/4/1
f 21/2/1 16/2/1 20/2/1
f 22/4/1 21/4/1 20/4/1
f 23/4/1 21/4/1 22/4/1
f 27/3/1 25/3/1 24/3/1
f 28/2/1 26/2/1 25/2/1
f 28/3/1 25/3/1 27/3/1
f 29/2/1 26/2/1 28/2/1
f 32/2/1 31/2/1 30/2/1
f 33/2/1 31/2/1 32/2/1
f 34/2/2 35/2/2 36/2/2
f 36/2/2 35/2/2 37/2/2
f 38/2/2 39/2/2 40/2/2
f 40/2/2 39/2/2 41/2/2
f 40/3/2 41/3/2 42/3/2
f 42/3/2 41/3/2 43/3/2
f 44/2/2 45/2/2 46/2/2
f 44/2/2 46/2/2 48/2/2
f 46/2/2 47/2/2 48/2/2
f 48/2/2 47/2/2 49/2/2
f 48/4/2 49/4/2 50/4/2
f 49/2/2 47/2/2 51/2/2
f 50/4/2 49/4/2 51/4/2
f 51/2/2 47/2/2 52/2/2
f 51/4/2 52/4/2 53/4/2
f 53/4/2 52/4/2 54/4/2
f 55/3/2 56/3/2 58/3/2
f 58/3/2 56/3/2 59/3/2
f 56/2/2 57/2/2 60/2/2
f 59/3/2 56/3/2 60/3/2
f 60/2/2 57/2/2 61/2/2
f 58/1/2 59/1/2 62/1/2
f 62/1/2 59/1/2 63/1/2
f 64/2/2 65/2/2 66/2/2
f 66/2/2 65/2/2 67/2/2
f 73/2/3 69/2/3 68/2/3
f 74/2/3 69/2/3 73/2/3
f 75/2/3 71/2/3 70/2/3
f 76/3/3 72/3/3 71/3/3
f 76/2/3 71/2/3 75/2/3
f 77/3/3 72/3/3 76/3/3
f 78/1/3 73/1/3 72/1/3
f 78/1/3 74/1/3 73/1/3
f 81/1/3 78/1/3 72/1/3
f 81/2/3 79/2/3 78/2/3
f 82/4/3 80/4/3 79/4/3
f 82/2/3 79/2/3 81/2/3
f 83/4/3 80/4/3 82/4/3
f 84/3/3 72/3/3 77/3/3
f 85/1/3 81/1/3 72/1/3
f 85/3/3 72/3/3 84/3/3
f 86/1/3 81/1/3 85/1/3
f 87/1/3 81/1/3 86/1/3
f 88/2/3 87/2/3 86/2/3
f 89/2/3 87/2/3 88/2/3
f 92/4/3 91/4/3 90/4/3
f 93/4/3 91/4/3 92/4/3
f 94/2/4 95/2/4 99/2/4
f 95/3/4 96/3/4 100/3/4
f 99/2/4 95/2/4 100/2/4
f 100/3/4 96/3/4 101/3/4
f 97/1/4 98/1/4 102/1/4
f 96/1/4 97/1/4 102/1/4
f 101/3/4 96/3/4 104/3/4
f 96/1/4 102/1/4 105/1/4
f 104/3/4 96/3/4 105/3/4
f 102/2/4 103/2/4 106/2/4
f 105/1/4 102/1/4 106/1/4
f 106/2/4 103/2/4 107/2/4
f 105/1/4 106/1/4 108/1/4
f 108/1/4 106/1/4 109/1/4
f 109/1/4 106/1/4 110/1/4
f 111/2/4 112/2/4 114/2/4
f 112/4/4 113/4/4 115/4/4
f 114/2/4 112/2/4 115/2/4
f 115/4/4 113/4/4 116/4/4
f 117/2/4 118/2/4 119/2/4
f 119/2/4 118/2/4 120/2/4
f 121/2/4 122/2/4 123/2/4
f 123/2/4 122/2/4 124/2/4
f 125/2/4 126/2/4 127/2/4
f 127/2/4 126/2/4 128/2/4
f 131/2/5 130/2/5 129/2/5
f 132/2/5 130/2/5 131/2/5
f 135/3/5 134/3/5 133/3/5
f 136/3/5 134/3/5 135/3/5
f 137/3/5 134/3/5 136/3/5
f 138/3/5 134/3/5 137/3/5
f 139/2/5 138/2/5 137/2/5
f 140/2/5 138/2/5 139/2/5
f 145/2/5 142/2/5 141/2/5
f 146/2/5 144/2/5 143/2/5
f 147/2/5 145/2/5 141/2/5
f 148/2/5 145/2/5 147/2/5
f 149/2/5 144/2/5 146/2/5
f 150/2/5 144/2/5 149/2/5
f 153/2/5 152/2/5 151/2/5
f 154/2/5 152/2/5 153/2/5
f 155/3/6 156/3/6 157/3/6
f 157/3/6 156/3/6 158/3/6
f 157/2/6 158/2/6 159/2/6
f 159/2/6 158/2/6 160/2/6
f 161/2/6 162/2/6 167/2/6
f 162/1/6 163/1/6 167/1/6
f 167/1/6 163/1/6 168/1/6
f 164/1/6 165/1/6 169/1/6
f 165/2/6 166/2/6 170/2/6
f 169/1/6 165/1/6 170/1/6
f 161/2/6 167/2/6 171/2/6
f 171/2/6 167/2/6 172/2/6
f 170/2/6 166/2/6 173/2/6
f 173/2/6 166/2/6 174/2/6
f 175/4/6 176/4/6 177/4/6
f 177/4/6 176/4/6 178/4/6
f 179/4/6 180/4/6 181/4/6
f 181/4/6 180/4/6 182/4/6
